<?xml version="1.0" encoding="UTF-8" standalone="no"?>
<!-- Generator: Adobe Illustrator 19.0.0, SVG Export Plug-In . SVG Version: 6.00 Build 0)  -->

<svg
   xmlns:dc="http://purl.org/dc/elements/1.1/"
   xmlns:cc="http://creativecommons.org/ns#"
   xmlns:rdf="http://www.w3.org/1999/02/22-rdf-syntax-ns#"
   xmlns:svg="http://www.w3.org/2000/svg"
   xmlns="http://www.w3.org/2000/svg"
   xmlns:sodipodi="http://sodipodi.sourceforge.net/DTD/sodipodi-0.dtd"
   xmlns:inkscape="http://www.inkscape.org/namespaces/inkscape"
   version="1.1"
   id="Layer_1"
   x="0px"
   y="0px"
   viewBox="0 0 512 512"
   style="enable-background:new 0 0 512 512;"
   xml:space="preserve"
   sodipodi:docname="archives.svg"
   inkscape:version="0.92.3 (2405546, 2018-03-11)"><metadata
   id="metadata7284"><rdf:RDF><cc:Work
       rdf:about=""><dc:format>image/svg+xml</dc:format><dc:type
         rdf:resource="http://purl.org/dc/dcmitype/StillImage" /></cc:Work></rdf:RDF></metadata><defs
   id="defs7282" /><sodipodi:namedview
   pagecolor="#ffffff"
   bordercolor="#666666"
   borderopacity="1"
   objecttolerance="10"
   gridtolerance="10"
   guidetolerance="10"
   inkscape:pageopacity="0"
   inkscape:pageshadow="2"
   inkscape:window-width="1920"
   inkscape:window-height="1028"
   id="namedview7280"
   showgrid="false"
   inkscape:zoom="0.4609375"
   inkscape:cx="131.25424"
   inkscape:cy="256"
   inkscape:window-x="-8"
   inkscape:window-y="-8"
   inkscape:window-maximized="1"
   inkscape:current-layer="Layer_1" />
<g
   id="g7217"
   style="fill:#27a4dd;fill-opacity:1">
	<g
   id="g7215"
   style="fill:#27a4dd;fill-opacity:1">
		<path
   d="M467.478,0H178.087c-9.22,0-16.696,7.475-16.696,16.696v50.087h-50.087c-9.22,0-16.696,7.475-16.696,16.696v50.087H44.522    c-9.22,0-16.696,7.475-16.696,16.696v345.043c0,9.22,7.475,16.696,16.696,16.696h289.391c9.22,0,16.696-7.475,16.696-16.696    v-50.087h50.087c9.22,0,16.696-7.475,16.696-16.696v-50.087h50.087c9.22,0,16.696-7.475,16.696-16.696V16.696    C484.174,7.475,476.699,0,467.478,0z M317.217,478.609h-256V166.957h256V478.609z M384,411.826h-33.391V150.261    c0-9.22-7.475-16.696-16.696-16.696H128v-33.391h256V411.826z M450.783,345.043h-33.391V83.478c0-9.22-7.475-16.696-16.696-16.696    H194.783V33.391h256V345.043z"
   id="path7213"
   style="fill:#27a4dd;fill-opacity:1" />
	</g>
</g>
<g
   id="g7223"
   style="fill:#27a4dd;fill-opacity:1">
	<g
   id="g7221"
   style="fill:#27a4dd;fill-opacity:1">
		<path
   d="M267.13,211.478H111.304c-9.22,0-16.696,7.475-16.696,16.696c0,9.22,7.475,16.696,16.696,16.696H267.13    c9.22,0,16.696-7.475,16.696-16.696C283.826,218.953,276.351,211.478,267.13,211.478z"
   id="path7219"
   style="fill:#27a4dd;fill-opacity:1" />
	</g>
</g>
<g
   id="g7229"
   style="fill:#27a4dd;fill-opacity:1">
	<g
   id="g7227"
   style="fill:#27a4dd;fill-opacity:1">
		<path
   d="M267.13,278.261h-41.75c-9.22,0-16.696,7.475-16.696,16.696s7.475,16.696,16.696,16.696h41.75    c9.22,0,16.696-7.475,16.696-16.696S276.351,278.261,267.13,278.261z"
   id="path7225"
   style="fill:#27a4dd;fill-opacity:1" />
	</g>
</g>
<g
   id="g7235"
   style="fill:#27a4dd;fill-opacity:1">
	<g
   id="g7233"
   style="fill:#27a4dd;fill-opacity:1">
		<path
   d="M158.598,278.261h-47.293c-9.22,0-16.696,7.475-16.696,16.696s7.475,16.696,16.696,16.696h47.293    c9.22,0,16.696-7.475,16.696-16.696S167.818,278.261,158.598,278.261z"
   id="path7231"
   style="fill:#27a4dd;fill-opacity:1" />
	</g>
</g>
<g
   id="g7241"
   style="fill:#27a4dd;fill-opacity:1">
	<g
   id="g7239"
   style="fill:#27a4dd;fill-opacity:1">
		<path
   d="M267.13,345.043H111.304c-9.22,0-16.696,7.475-16.696,16.696s7.475,16.696,16.696,16.696H267.13    c9.22,0,16.696-7.475,16.696-16.696S276.351,345.043,267.13,345.043z"
   id="path7237"
   style="fill:#27a4dd;fill-opacity:1" />
	</g>
</g>
<g
   id="g7247"
   style="fill:#27a4dd;fill-opacity:1">
	<g
   id="g7245"
   style="fill:#27a4dd;fill-opacity:1">
		<path
   d="M267.13,411.826h-77.913c-9.22,0-16.696,7.475-16.696,16.696s7.475,16.696,16.696,16.696h77.913    c9.22,0,16.696-7.475,16.696-16.696S276.351,411.826,267.13,411.826z"
   id="path7243"
   style="fill:#27a4dd;fill-opacity:1" />
	</g>
</g>
<g
   id="g7249">
</g>
<g
   id="g7251">
</g>
<g
   id="g7253">
</g>
<g
   id="g7255">
</g>
<g
   id="g7257">
</g>
<g
   id="g7259">
</g>
<g
   id="g7261">
</g>
<g
   id="g7263">
</g>
<g
   id="g7265">
</g>
<g
   id="g7267">
</g>
<g
   id="g7269">
</g>
<g
   id="g7271">
</g>
<g
   id="g7273">
</g>
<g
   id="g7275">
</g>
<g
   id="g7277">
</g>
</svg>