<?xml version="1.0" encoding="UTF-8" standalone="no"?>
<!-- Generator: Adobe Illustrator 19.0.0, SVG Export Plug-In . SVG Version: 6.00 Build 0)  -->

<svg
   xmlns:dc="http://purl.org/dc/elements/1.1/"
   xmlns:cc="http://creativecommons.org/ns#"
   xmlns:rdf="http://www.w3.org/1999/02/22-rdf-syntax-ns#"
   xmlns:svg="http://www.w3.org/2000/svg"
   xmlns="http://www.w3.org/2000/svg"
   xmlns:sodipodi="http://sodipodi.sourceforge.net/DTD/sodipodi-0.dtd"
   xmlns:inkscape="http://www.inkscape.org/namespaces/inkscape"
   version="1.1"
   id="Layer_1"
   x="0px"
   y="0px"
   viewBox="0 0 300 300"
   style="enable-background:new 0 0 300 300;"
   xml:space="preserve"
   sodipodi:docname="arrow-top.svg"
   inkscape:version="0.92.3 (2405546, 2018-03-11)"><metadata
   id="metadata5954"><rdf:RDF><cc:Work
       rdf:about=""><dc:format>image/svg+xml</dc:format><dc:type
         rdf:resource="http://purl.org/dc/dcmitype/StillImage" /></cc:Work></rdf:RDF></metadata><defs
   id="defs5952" /><sodipodi:namedview
   pagecolor="#ffffff"
   bordercolor="#666666"
   borderopacity="1"
   objecttolerance="10"
   gridtolerance="10"
   guidetolerance="10"
   inkscape:pageopacity="0"
   inkscape:pageshadow="2"
   inkscape:window-width="1920"
   inkscape:window-height="1028"
   id="namedview5950"
   showgrid="false"
   inkscape:zoom="0.78666667"
   inkscape:cx="76.90678"
   inkscape:cy="150"
   inkscape:window-x="-8"
   inkscape:window-y="-8"
   inkscape:window-maximized="1"
   inkscape:current-layer="Layer_1" />
<g
   id="g5917"
   transform="rotate(-90,150,150)"
   style="fill:#ffffff">
	<g
   id="g5915"
   style="fill:#ffffff">
		<path
   d="M 149.996,0 C 67.157,0 0.001,67.161 0.001,149.997 0.001,232.833 67.157,300 149.996,300 232.835,300 299.999,232.837 299.999,149.997 299.999,67.157 232.835,0 149.996,0 Z M 208.8,94.181 170.703,201.654 c -0.322,0.908 -1.118,1.561 -2.067,1.699 -0.967,0.132 -1.904,-0.259 -2.469,-1.032 l -19.346,-26.434 -31.981,31.979 c -0.506,0.506 -1.17,0.76 -1.834,0.76 -0.664,0 -1.328,-0.254 -1.834,-0.76 L 91.806,188.5 c -1.014,-1.014 -1.014,-2.653 0,-3.667 l 31.979,-31.984 -26.436,-19.343 c -0.775,-0.568 -1.175,-1.517 -1.035,-2.469 0.14,-0.952 0.794,-1.748 1.699,-2.067 L 205.486,90.873 c 0.944,-0.335 1.994,-0.099 2.7,0.609 0.71,0.704 0.949,1.755 0.614,2.699 z"
   id="path5913"
   inkscape:connector-curvature="0"
   style="fill:#ffffff" />
	</g>
</g>
<g
   id="g5919">
</g>
<g
   id="g5921">
</g>
<g
   id="g5923">
</g>
<g
   id="g5925">
</g>
<g
   id="g5927">
</g>
<g
   id="g5929">
</g>
<g
   id="g5931">
</g>
<g
   id="g5933">
</g>
<g
   id="g5935">
</g>
<g
   id="g5937">
</g>
<g
   id="g5939">
</g>
<g
   id="g5941">
</g>
<g
   id="g5943">
</g>
<g
   id="g5945">
</g>
<g
   id="g5947">
</g>
</svg>