<svg xmlns="http://www.w3.org/2000/svg" width="40.0398mm" height="21.9588mm" viewBox="0 0 113.4985 62.2455"><defs><style>.cls-1,.cls-2{fill:#fff;}.cls-2{stroke:#fff;stroke-miterlimit:10;stroke-width:0.5px;}</style></defs><title>Datový zdroj 1</title><g id="Vrstva_2" data-name="Vrstva 2"><g id="Vrstva_1-2" data-name="Vrstva 1"><path class="cls-1" d="M2.5654,56.0941l-.0224.0947-.2285.03-.1485.11-.0991.0157-.1255.0761-.1255.0567a.49.49,0,0,1-.1489.1v.0381l-.1138.0566-.08.126H1.3892l-.0415.1221-.0879.0566a.2154.2154,0,0,0-.0835.084L1.1,57.2015a.2418.2418,0,0,0-.103.209L.959,57.3958l-.0152.0489-.0571.0381-.0532.1338a.366.366,0,0,0-.0835.1787l-.0728.03V57.99a.2179.2179,0,0,0-.038.084L.6548,58.1l-.0762.03.023.0606a1.1766,1.1766,0,0,1-.1182.2822l.0381.0986-.0762.126a.6289.6289,0,0,1,.0151.1182l-.0151.125.0342.1377a.2107.2107,0,0,0,.0342.0459l.0571.0566a.4272.4272,0,0,1-.0952.1328L.373,59.2757l.0152.0694-.1714-.0313v-.1025l-.023-.0684.023-.126-.023-.0527L.21,58.6976l-.0157-.1787c-.0356-.0127-.0532-.0283-.0532-.0459a.1931.1931,0,0,1,.0532-.0957V58.264A.8642.8642,0,0,0,.1865,58.13l.03-.0381-.03-.1484.023-.1182-.023-.0722.023-.209-.0381-.0615.0224-.0723-.0454-.1553.0152-.122a.96.96,0,0,0-.0152-.1407l.023-.0381-.0459-.2666L.0684,56.65l.0571-.1338a.4282.4282,0,0,1-.08-.2588v-.1065A.2092.2092,0,0,1,0,56.0785a.4263.4263,0,0,1,.1938-.126l.0572.0156a.3964.3964,0,0,0,.084.1826L.32,56.3451l.0762.59a.1418.1418,0,0,1-.0459.1025l.0381.1641-.023.1182.023.125-.0152.1.0572.1181-.0342.0225.0264.1787.061.0156L.51,57.7269A.5232.5232,0,0,1,.6016,57.59.2567.2567,0,0,0,.7,57.3958V57.35l.05-.0224c.0073,0,.0137-.01.019-.0293S.7827,57.27.7954,57.27h.023l.0454-.1524.1181-.08L.99,56.9925H1.043l-.023-.0879.1182-.0537.0073-.0947.11-.0156a.3494.3494,0,0,0,.1142-.1485l.0723-.0146a.8242.8242,0,0,1,.1411-.1416.0387.0387,0,0,0,.0381-.0225l.1255-.0683.0307-.0577.0684-.038a.6554.6554,0,0,1,.2739-.1485h.0308a.1586.1586,0,0,0,.11-.0381l.0684.0235a.1664.1664,0,0,1,.0874-.0381C2.5112,56.0687,2.5605,56.0833,2.5654,56.0941Z"/><path class="cls-1" d="M5.69,58.4427a.2911.2911,0,0,1,.0567.1289.3429.3429,0,0,1-.07.13.819.819,0,0,0-.1084.209l-.0572.0078-.0835.1641-.0952.0146-.2095.1406-.038.084-.065-.0078-.0683.08h-.11l-.0229.0381-.0533-.0078a.1913.1913,0,0,0-.1484.0761l-.0493-.038a.3263.3263,0,0,1-.1294.038.2383.2383,0,0,1-.1411-.038.49.49,0,0,1-.1026.0078l-.0459-.0381a.3426.3426,0,0,1-.2817-.1182v-.0947l-.1255-.0684-.0308-.08a.2978.2978,0,0,0-.0834-.0987v-.0615L3.54,58.5414l.0151-.2627.03-.1485v-.164l.042-.1407-.0152-.1025a.1516.1516,0,0,0,.0532-.0859.52.52,0,0,1,.0454-.1163c-.01-.0449-.02-.11-.03-.1933l.0683-.0576L3.68,57.1937a.3346.3346,0,0,0,.0532-.11l-.0381-.2324a.5885.5885,0,0,1,.023-.1631.1283.1283,0,0,0,.103.0684.84.84,0,0,0,.1484-.03.1656.1656,0,0,1-.0078-.0537.1167.1167,0,0,1,.061-.0947,1.46,1.46,0,0,1,.1714-.3584.1889.1889,0,0,0,.0723-.1563h.0381l.0381-.0761.0454-.0186a.2969.2969,0,0,1,.08-.1142.5088.5088,0,0,0,.2094-.1788.1737.1737,0,0,0,.0645.0079c.0078,0,.0278-.0293.061-.0879.0889-.03.1358-.0459.1406-.0459a.0934.0934,0,0,1,.0689.0459l.0723-.0157.038.0313h.0455a.1583.1583,0,0,0,.1562.125h.023a.1219.1219,0,0,0,.0493.08l-.0342.0156c.0889.043.1333.1426.1333.3008l-.023.0869.023.2168-.0381.0351-.0874.2315-.1562.1943-.0079.11A2.3571,2.3571,0,0,1,4.75,57.32c-.01.03-.0269.0459-.0493.0459A.2751.2751,0,0,1,4.64,57.35l-.1713.1182H4.3652l-.1484.0684-.0645-.0381a.6053.6053,0,0,0-.16-.03.373.373,0,0,0-.1177.2852l-.0532.0644a.871.871,0,0,1-.0381.2022l-.042.0224.042.2823-.042.038.0073.0879-.0073.1065a1.4015,1.4015,0,0,0,.0191.1445c.0126.0781.0327.124.061.1367-.0127.0362.0117.0791.0742.13a.5544.5544,0,0,0,.2.1065v.0459l.2017.03.29.0147.1939-.0225a.8575.8575,0,0,1,.1714-.1025l.061-.0918H5.085l.0078-.0381a.6718.6718,0,0,0,.1845-.0781.0647.0647,0,0,0,.0171-.04.0728.0728,0,0,1,.0684-.0449l.0229-.05a.2518.2518,0,0,0,.2129-.2246A.1416.1416,0,0,1,5.69,58.4427Zm-.64-1.7783c.02-.002.0542-.0342.1025-.0947l.023-.0918a1.6349,1.6349,0,0,0,.11-.2031.33.33,0,0,0,.0152-.1084.8864.8864,0,0,0-.0533-.2286l-.1557-.0537a.4.4,0,0,1-.08.0157l-.0459-.0157c-.0381,0-.0645.0235-.08.0684a.6348.6348,0,0,0-.21.0576l-.0229.0527a.071.071,0,0,0-.03-.0068.05.05,0,0,0-.021.0039.0432.0432,0,0,0-.0171.0108l-.0156.0175a.0954.0954,0,0,0-.0132.0244l-.0112.0323-.0117.0342a.2753.2753,0,0,1-.0474.0673l-.0571.0684-.11.209-.0571.05a.1791.1791,0,0,0-.042.0986,1.6321,1.6321,0,0,1-.2056.3652l.0533.0313.0268.0645.1294.038a.65.65,0,0,1,.2358-.1025l.023-.0459a.21.21,0,0,0,.061.0146.0931.0931,0,0,0,.0723-.0449l.0913-.0156.0571-.0947h.0533l.038-.084a.27.27,0,0,0,.1944-.0957Z"/><path class="cls-1" d="M9.9492,59.0746l-.11.0527-.023.0693a.5384.5384,0,0,0-.1181.041L9.66,59.2113l-.0572.0263-.122-.1484v-.1709l-.0572-.05.0152-.2393-.0454-.499.03-.164-.0532-.087.0684-.038-.0454-.0684.0151-.0723.0381-.0312-.0078-.0947h.042v-.1563l.0151-.0762c-.02-.0048-.0444-.0293-.0723-.0722l-.1216.0576a.298.298,0,0,1-.103.125l-.0073.084-.0879.0381-.0151.11-.0533.0381V57.78a.3357.3357,0,0,0-.11.1377l-.0532.0342-.1182.209-.1865.1865-.0611.1035-.1635.1709-.042.0918-.2246.1553-.251.2969-.084.0234a.3117.3117,0,0,0-.1177.08H7.6006c-.0435,0-.0777-.042-.103-.126q-.2931-.1143-.3081-.3271l.061-.0381a1.0355,1.0355,0,0,1-.061-.3047l-.042-.03.0268-.042a.2021.2021,0,0,0,.0225-.0781c.0053-.0371.0127-.0879.0229-.1543l.0532-.2891a.1413.1413,0,0,1-.0073-.0537.1944.1944,0,0,1,.0225-.0869.3915.3915,0,0,1-.0152-.084.3007.3007,0,0,1,.0152-.08l.0307-.0079a.2689.2689,0,0,0,.0645-.1484.0782.0782,0,0,0-.0244-.0605c-.0166-.0157-.0249-.0254-.0249-.03,0-.0186.0141-.0313.042-.0381q-.0572-.0117-.0572-.05c0-.0254.0264-.0381.08-.0381v-.0156a.2669.2669,0,0,1,.0474-.1533.3215.3215,0,0,0,.0513-.0977L7.4443,56.92l.1031-.1641v-.0381a.4062.4062,0,0,1,.1064-.2822l-.0078-.1406.0342-.0225a.1242.1242,0,0,1-.0264-.0762c0-.0156.0166-.0234.0493-.0234v-.125q.0381-.0117.0381-.0381a.098.098,0,0,0-.0073-.042,1.5008,1.5008,0,0,1,.1064-.126.5976.5976,0,0,0,.11-.1523h.0229c.0581,0,.0874-.0137.0874-.041a.0579.0579,0,0,0-.0229-.0381q.156,0,.164-.0615l.1407-.0723.4033.0342v.03l.3276.0693h.03c.0483,0,.0723.0215.0723.0644l.0381-.0156a.0835.0835,0,0,0,.0878.0684L9.34,55.721l.0684.0684.1636.042V55.9a1.1218,1.1218,0,0,1,.2817-.126V55.9H9.8159l.0762.038-.0151.0147.061.1982-.0689.0762-.03.13a.5984.5984,0,0,1-.0723.1592l.0493.1-.0434.06a.3072.3072,0,0,0-.0367.1748.0391.0391,0,0,1,.023.0381l-.0151.0654.0078.0528-.023.084.0152.0722-.0459.0537.0156.1709-.023.0225.023.0342-.023.0234a.0437.0437,0,0,1,.0074.03.1226.1226,0,0,1-.0225.0683l.0225.05-.0376.0683c-.0206.0127-.0308.05-.0308.11l.0308.0986-.0728.0957a.2563.2563,0,0,0,.0728.1025.7956.7956,0,0,0-.0953.3008l.0645.0156-.0073.042a.1158.1158,0,0,1,.0073.0528.3263.3263,0,0,1-.0571.1562h.05l.0224.1182.1563.0146.0532.1c-.0151.01-.0229.0186-.0229.0264q0,.0307.0761.0762H9.9c-.01,0-.0151.0029-.0151.0078C9.8848,59.015,9.9063,59.0384,9.9492,59.0746Zm-.4-2.8018-.0454-.1406-.1255-.0381L9.1611,55.9a.162.162,0,0,0-.08-.03.2108.2108,0,0,0-.061.0146l-.0381-.0381H8.8569l-.0381-.0488-.0878.0342-.0381-.0342-.0645.0186-.1221-.0186a.7423.7423,0,0,0-.2739.0869l.0152.03-.0684.0234-.0151.03-.0879.0117v.045a.6454.6454,0,0,0-.1787.248,2.6113,2.6113,0,0,1-.1412.3994l.0611.03-.0991.0879.0307.0605a.4232.4232,0,0,0-.0688.24v.042l-.0567.0839V57.35a.254.254,0,0,0-.0688.1407l-.03.03v.1416l-.0268.0381a1.018,1.018,0,0,1-.03.209l.042.0947a.3052.3052,0,0,0-.11.0957l.03.0606-.0459.0615.061.1553-.0683.0957.0073.1865-.0225.0879.0381.0225.0152.0537a.266.266,0,0,1,.11.0869l.1787-.042a.1872.1872,0,0,1,.1714-.1211L7.8594,58.69l.1235-.0322c.0039-.001.01-.0157.0171-.044a.156.156,0,0,1,.0688-.08H8.084c.0151,0,.0229-.01.0229-.03l.1407-.1641h-.03l.0835-.0752a.3371.3371,0,0,1,.126-.0732l.0566-.1485c.0967-.04.1514-.0947.1641-.1631h.0454l.0761-.1-.0151-.0644.0723-.0147a.1.1,0,0,1-.0152-.0381.35.35,0,0,1,.0533-.0859c.0356-.05.0634-.0908.0839-.124l.0342.0156a.1883.1883,0,0,1,.0835-.1406A.1766.1766,0,0,1,9.127,57.23a.1454.1454,0,0,1,.0649-.0361h.0532l.0073-.0947a.0457.0457,0,0,0,.0157-.03.0648.0648,0,0,0-.023-.0459.4526.4526,0,0,1,.11-.1406l.0151-.084.0532-.042-.0151-.0684a.3953.3953,0,0,0,.0571-.1416l.0684-.0683Z"/><path class="cls-1" d="M13.58,58.1908a.0943.0943,0,0,1,.0493.0732c0,.0635-.0161.0986-.0493.1065-.0611.0986-.1231.1484-.1865.1484,0,.0225-.085.1084-.2549.2588a.2293.2293,0,0,0-.1011.0439c-.0166.0166-.0513.0489-.1045.0967a.1427.1427,0,0,0-.1411.0918l-.0762.0225-.03-.0157-.0229.0655H12.64a.459.459,0,0,0-.1635.0449,1.3377,1.3377,0,0,1-.1333.0537l-.08.03H12.21l-.0454-.0684-.0723-.06a.7431.7431,0,0,0-.1182-.2061l-.0229-.1865.0078-.0908-.0381-.05.0073-.2246L11.92,58.13l.0073-.0947a.1141.1141,0,0,0,.023-.0615.2975.2975,0,0,0-.0532-.1407c.02-.2158.03-.3349.03-.3574a.2242.2242,0,0,0-.06-.1416l.06-.03.023-.2969-.0152-.125.0572-.1416-.042-.1563a.3175.3175,0,0,0,.0649-.2011v-.2588l.023-.0616-.0078-.38.0229-.377a.6286.6286,0,0,1-.0381-.293l.023-.2363-.023-.084.0381-.3535q.0417-.016.0894-.0381a.2116.2116,0,0,1,.059-.0234.0735.0735,0,0,1,.03.0156l.0381.125.08.0693-.0571.0791v.0313a.2014.2014,0,0,0,.0263.0947c-.0049.086-.0239.13-.0566.13l.0224.042a1.3654,1.3654,0,0,0,.042.3271l-.0644.2012.0493.0694a.59.59,0,0,0-.0874.2968.0877.0877,0,0,0,.0684.0948l-.0533.1484a.3507.3507,0,0,1,.03.0918.2622.2622,0,0,1-.03.1025l.0152.0908-.0381.252-.0039.1182a1.5335,1.5335,0,0,1-.0645.247l.0381.1641-.0229.2969-.042.03.0493.0948-.0342.1484-.03.2324.03.0577-.03.0224a.293.293,0,0,1,.0494.1865.2714.2714,0,0,1-.0342.0909l.0342.0878-.0191.1182.0342.084-.0151.0644.0839.2549.0952.0381a.5553.5553,0,0,1,.1788-.0683l.0459.0078.1064-.0918a.2672.2672,0,0,1,.0952-.042.1582.1582,0,0,1,.1333-.0762l.0381-.042.0571.0078.0152-.0381.0761-.0224.0723-.0537.0762-.0225c.0049-.0029.03-.0254.0742-.0683a.6658.6658,0,0,1,.12-.0958c0-.0224.0166-.0419.05-.0566a.036.036,0,0,0,.03.0147A.1493.1493,0,0,0,13.58,58.1908Z"/><path class="cls-1" d="M15.93,54.98a.3864.3864,0,0,1-.1814.1768v.0678l-.0931.1037c-.0312.0412-.2951-.2539-.2951-.2539.0272,0,.0478-.0213.0618-.0625h.0625l.01-.109a.3547.3547,0,0,0,.13-.2127A.4162.4162,0,0,1,15.93,54.98Z"/><path class="cls-1" d="M16.8262,58.1156l-.0152.0752-.0722.0537-.0308.0947-.1064.0313a.3756.3756,0,0,1-.11.1933l-.0952.0352-.084.0908a.77.77,0,0,0-.1328.1406h-.0537a.2218.2218,0,0,1-.1709.0879c-.0562.0684-.0879.1094-.0952.1221a.3866.3866,0,0,1-.1465.0547.9462.9462,0,0,0-.1123.0254l-.0308.0449h-.1255l-.0683.0537-.1944-.1445-.11-.251-.0151-.4043-.023-.08.0762-.6387.0493-.0381-.023-.4a.435.435,0,0,1,.021-.1348,1.2123,1.2123,0,0,0,.04-.1729l.0307-.02a.4924.4924,0,0,0-.0537-.2168l.0308-.1025V56.471l.0381-.05a1.103,1.103,0,0,0-.0269-.124.7443.7443,0,0,1-.019-.0781c0-.04.01-.0606.0307-.0606a.0221.0221,0,0,0,.0152.0079A.5562.5562,0,0,1,15.19,56.01c0-.0381.0175-.0576.0532-.0576a.1367.1367,0,0,1,.0512.0215.13.13,0,0,0,.0591.0205.141.141,0,0,0,.0381-.0147c0-.0429.0176-.0654.0532-.0654q.0455,0,.0513.0176c.0039.0117.0107.06.021.1465l.084.0381-.0689.0878-.08.4981.0645.126a.1868.1868,0,0,1-.0723.1484l-.0229.0986.0229.0879-.0913.3194.0074.038-.0381.2588v.1866l-.0567.1259.0152.1065-.0152.1787a.823.823,0,0,0,.0645.3506l-.0078.042.0688.0459.08-.0235.0918.0381.11-.0527a.3406.3406,0,0,1,.1333-.0576l.0532-.0528.0151.0225.0454-.0606.08-.0234a.4612.4612,0,0,1,.1943-.1025.1352.1352,0,0,1,.11-.0606l.0454-.0722.0879-.0079-.0191-.0839h.0342l.0152-.042.1635-.084.0157-.0947.1484.0078A.31.31,0,0,1,16.8262,58.1156Z"/><path class="cls-1" d="M21.4507,58.4652a.36.36,0,0,1,.0683.2168.1642.1642,0,0,1-.0073.0654l-.1865.2246-.023.0947-.11.03-.0381.0762-.1182.0234h-.1215l-.335-.0459-.0952.0459-.1255-.0459-.1641.03-.06-.0537c-.1753.0312-.2666.0459-.2744.0459l-.1406-.03-.2706-.0156-.1713.0156-.0948-.0263a.6082.6082,0,0,0-.1411-.0274.8175.8175,0,0,0-.2549.0537l-.1484-.0537a1.3916,1.3916,0,0,0-.4531.0615l-.0152.0869-.0722.0313-.0381.0527-.0689.0235-.08-.0313-.0229-.0683v-.1026l.0229-.0537.1026-.0869a.3532.3532,0,0,1,.082-.12.41.41,0,0,1,.1275-.0586c.01-.0108.0307-.0313.0629-.0615a.14.14,0,0,0,.0474-.1026v-.0156c.0581-.002.0913-.0264.0991-.0723a1.1055,1.1055,0,0,0,.1787-.1045.0674.0674,0,0,0,.0191-.0478.3262.3262,0,0,1,.0991-.0723A.4936.4936,0,0,1,18.9,58.13c.0708-.0049.1133-.0332.1274-.084a.3257.3257,0,0,1,.0664-.1289h.042v-.0537l.1255-.0146v-.0157a.5728.5728,0,0,1,.0459-.1328.1316.1316,0,0,0,.0913-.11.2856.2856,0,0,1,.1563-.084l.0073-.0615.0874-.0567.08-.122a.4325.4325,0,0,1,.0991-.1026.13.13,0,0,0,.1025-.126l.107-.083.0415-.1035.0762-.0527.1333-.2207.1259-.084a.3751.3751,0,0,1,.0913-.1641v-.0722a.221.221,0,0,0,.1328-.0684c-.0175-.0635-.07-.0947-.1557-.0947h-.0308l-.1938.0947-.11-.0156-.0952.0312-.1372-.0156-.0952.03-.08-.0381-.2324.0762a.7633.7633,0,0,0-.1787-.0225,1.1822,1.1822,0,0,0-.2246.0225l-.08-.0381-.1636.0234-.0762-.0234-.1484.0381-.2437-.0528-.1943.0147-.35-.0869-.1333.0342-.1025-.05-.0381-.1221.0947-.0723.0762.0235a.3364.3364,0,0,1,.1562-.0616l.1031.0381h.1484c0,.0537.0225.08.0684.08l.038-.0078h.1563l.11.03.1329-.0225.1181.0381.1065-.0225h.0229l.0952-.0078.1333.0147.0459-.03.6851.0078.0874.0225.1255-.0567h.0762v-.0537h.3125l.1254-.03.1216.03.1753-.0684.1143.0079.1406-.0225h.0156c.0606,0,.0977.0547.11.1631L21.2,56.04l-.0688.0605-.11.05-.2319.24-.0728.0068-.1787.252a.3736.3736,0,0,0-.2856.3046l-.1026.0909-.1411.21-.0762.041-.3193.419-.1108.0381-.1026.1406-.0683.0234-.023.0723-.1562.1406-.0723.1338-.1484.1289-.1787.2285-.084.0225-.0152.0537-.0571.03c.023.0537.0547.08.0952.08a.6427.6427,0,0,1,.1714.0839l.0454-.0156.3848-.0078.0835.042.415-.0342.3882.0723a.132.132,0,0,1,.0723-.0225c.02,0,.0459.0225.0761.0684l.1412-.084.1406.0537.1255-.0381.1372.0225.1333-.0078a.1957.1957,0,0,1,.1406-.0645.3322.3322,0,0,1,.0972-.1045q.0321-.0132.0439-.082a.1453.1453,0,0,0,.0762-.1328v-.0381l.0263-.0762Z"/><path class="cls-1" d="M25.8428,59.0746l-.11.0527-.0229.0693a.5412.5412,0,0,0-.1182.041l-.0376-.0263-.0571.0263-.1221-.1484v-.1709l-.0571-.05.0151-.2393-.0454-.499.03-.164-.0532-.087.0683-.038-.0454-.0684.0151-.0723.0381-.0312-.0078-.0947h.042v-.1563l.0151-.0762c-.02-.0048-.0444-.0293-.0722-.0722l-.1216.0576a.2988.2988,0,0,1-.103.125l-.0074.084-.0878.0381-.0152.11-.0532.0381V57.78a.3359.3359,0,0,0-.11.1377l-.0532.0342-.1181.209-.1866.1865-.061.1035-.1636.1709-.042.0918-.2246.1553-.2509.2969-.084.0234a.3109.3109,0,0,0-.1177.08h-.023c-.0434,0-.0776-.042-.103-.126q-.293-.1143-.3081-.3271l.061-.0381a1.042,1.042,0,0,1-.061-.3047l-.042-.03.0269-.042a.2042.2042,0,0,0,.0224-.0781c.0054-.0371.0127-.0879.023-.1543l.0532-.2891a.1393.1393,0,0,1-.0073-.0537.1955.1955,0,0,1,.0224-.0869.3962.3962,0,0,1-.0151-.084.3039.3039,0,0,1,.0151-.08l.0308-.0079a.2689.2689,0,0,0,.0645-.1484.0779.0779,0,0,0-.0245-.0605c-.0166-.0157-.0249-.0254-.0249-.03,0-.0186.0142-.0313.042-.0381q-.0572-.0117-.0571-.05c0-.0254.0264-.0381.08-.0381v-.0156a.2668.2668,0,0,1,.0473-.1533.3167.3167,0,0,0,.0513-.0977l-.0532-.0146.103-.1641v-.0381a.4063.4063,0,0,1,.1065-.2822l-.0078-.1406.0341-.0225a.1247.1247,0,0,1-.0263-.0762c0-.0156.0166-.0234.0493-.0234v-.125q.0381-.0117.0381-.0381a.0979.0979,0,0,0-.0074-.042,1.509,1.509,0,0,1,.1065-.126.5942.5942,0,0,0,.11-.1523h.023c.0581,0,.0874-.0137.0874-.041a.0577.0577,0,0,0-.023-.0381q.156,0,.1641-.0615l.1406-.0723.4033.0342v.03l.3277.0693h.03c.0483,0,.0722.0215.0722.0644l.0381-.0156a.0836.0836,0,0,0,.0879.0684l.0381-.0069.0683.0684.1636.042V55.9a1.1243,1.1243,0,0,1,.2818-.126V55.9H25.71l.0761.038-.0151.0147.061.1982-.0688.0762-.03.13a.5976.5976,0,0,1-.0722.1592l.0493.1-.0435.06a.3082.3082,0,0,0-.0366.1748.0392.0392,0,0,1,.0229.0381l-.0151.0654.0078.0528-.0229.084.0151.0722-.0459.0537.0156.1709-.0229.0225.0229.0342-.0229.0234a.0438.0438,0,0,1,.0073.03.1218.1218,0,0,1-.0225.0683l.0225.05-.0376.0683c-.02.0127-.0308.05-.0308.11l.0308.0986-.0727.0957a.2563.2563,0,0,0,.0727.1025.796.796,0,0,0-.0952.3008l.0644.0156-.0073.042a.1158.1158,0,0,1,.0073.0528.3263.3263,0,0,1-.0571.1562h.05l.0225.1182.1562.0146.0533.1c-.0152.01-.023.0186-.023.0264q0,.0307.0762.0762h-.0073c-.01,0-.0152.0029-.0152.0078C25.7783,59.015,25.8,59.0384,25.8428,59.0746Zm-.4-2.8018-.0454-.1406-.1255-.0381L25.0547,55.9a.1623.1623,0,0,0-.08-.03.21.21,0,0,0-.061.0146l-.0381-.0381h-.1255l-.0381-.0488-.0879.0342-.0381-.0342-.0644.0186L24.4,55.7972a.7423.7423,0,0,0-.2739.0869l.0151.03-.0683.0234-.0152.03L23.97,55.98v.045a.6465.6465,0,0,0-.1787.248,2.6013,2.6013,0,0,1-.1411.3994l.061.03-.0991.0879.0308.0605a.4233.4233,0,0,0-.0689.24v.042l-.0566.0839V57.35a.2542.2542,0,0,0-.0689.1407l-.03.03v.1416l-.0269.0381a1.0111,1.0111,0,0,1-.03.209l.042.0947a.3043.3043,0,0,0-.11.0957l.03.0606-.0459.0615.061.1553-.0684.0957.0074.1865-.0225.0879.0381.0225.0151.0537a.2662.2662,0,0,1,.11.0869l.1787-.042a.1871.1871,0,0,1,.1714-.1211l-.0152-.0576.1236-.0322c.0039-.001.01-.0157.0171-.044a.1555.1555,0,0,1,.0688-.08h.0151c.0152,0,.023-.01.023-.03l.1406-.1641h-.03l.0835-.0752a.3387.3387,0,0,1,.126-.0732l.0567-.1485c.0966-.04.1513-.0947.164-.1631h.0454l.0762-.1-.0151-.0644.0722-.0147a.101.101,0,0,1-.0151-.0381.3514.3514,0,0,1,.0532-.0859c.0357-.05.0635-.0908.084-.124l.0342.0156a.188.188,0,0,1,.0835-.1406.1759.1759,0,0,1,.061-.0977.1464.1464,0,0,1,.0649-.0361h.0533l.0073-.0947a.0455.0455,0,0,0,.0156-.03.065.065,0,0,0-.0229-.0459.4543.4543,0,0,1,.11-.1406l.0152-.084.0532-.042-.0152-.0684a.3957.3957,0,0,0,.0572-.1416l.0683-.0683Z"/><path class="cls-1" d="M30.2847,57.9017l-.1221.1338a.516.516,0,0,1-.0151.1064.3085.3085,0,0,1-.0269.084.3855.3855,0,0,1-.0571.0723.7089.7089,0,0,0-.0757.1328.9851.9851,0,0,1-.0918.1445.7947.7947,0,0,1-.1064.1221,1.0671,1.0671,0,0,1-.1333.0986.87.87,0,0,0-.1905.1377l-.0644.0108a.5683.5683,0,0,0-.1446.0957l-.0879.0078-.1787.1328-.061-.0381-.1636.0762-.1562-.0381-.0454.0566-.0952-.0185-.0914.0185-.0268-.0263-.1065-.0186a.2316.2316,0,0,1-.11-.05l-.1255-.1025-.1143-.1719a.2961.2961,0,0,1-.08-.209v-.03l-.084-.1337v-.1182l-.0342-.0449.0151-.1563-.03-.126.0493-.121-.0342-.0577.08-.1259-.023-.1631.0191-.0684a.3048.3048,0,0,1,.0722-.1562l.0079-.1787.0571-.0459-.023-.05.0533-.0761a2.6589,2.6589,0,0,1,.1635-.4912l.1333-.1328.0381-.0958.061-.1064a.4156.4156,0,0,1,.08-.1709.24.24,0,0,0,.1558-.0644c-.0049-.087.0723-.13.2324-.13a.6342.6342,0,0,1,.1484.0381.2215.2215,0,0,1,.1485.1259c.0786,0,.1182.0274.1182.083l.2246.0079.0073.0722.0459.0537-.0078.0908.0571.0723-.0073.1.0151.0567-.0151.1562.0381.0537v.08l.0224.1631-.1557.084-.1641-.1944-.0151-.2509-.03-.0918v-.0948l-.0913-.11a.7407.7407,0,0,0-.1753-.1377l-.1065.0459h-.0952a.3716.3716,0,0,0-.1655.0654.6929.6929,0,0,0-.1772.2256.6737.6737,0,0,1-.1636.2158l-.0078.11-.0645.0527v.1563l-.0762.1025-.03.1074a.7183.7183,0,0,0-.063.1826c-.0142.0655-.0274.1016-.04.1065l.0079.125-.0689.164.0156.1182-.0307.0078-.0074.2969-.0156.0078.0156.0684-.0346.03.1142.1329a.3774.3774,0,0,1,.042.1259l-.0229.0225.08.11.061.0235.0073.0762.4151.0947a.1444.1444,0,0,1,.0991-.0567.3509.3509,0,0,1,.08.0186.2048.2048,0,0,1,.1064-.0488l.0571.0068a.412.412,0,0,0,.0532-.0322.3011.3011,0,0,1,.1485-.0362c.043-.0888.0976-.1328.1636-.1328a.1775.1775,0,0,1,.061.0078c.1318-.0566.1977-.1054.1977-.1484a.1649.1649,0,0,1,.1641-.084h.03c.2134-.2363.3144-.3642.3047-.3847a.4788.4788,0,0,0,.1333-.2168l.0683-.0459.0074-.1026C30.2666,57.72,30.2847,57.79,30.2847,57.9017Z"/><path class="cls-1" d="M33.7939,58.4427a.2911.2911,0,0,1,.0567.1289.3429.3429,0,0,1-.07.13.819.819,0,0,0-.1084.209l-.0572.0078-.0834.1641-.0953.0146-.2094.1406-.0381.084-.065-.0078-.0683.08h-.11l-.0229.0381-.0532-.0078A.1914.1914,0,0,0,32.72,59.5l-.0493-.038a.3263.3263,0,0,1-.1294.038.2383.2383,0,0,1-.1411-.038.4891.4891,0,0,1-.1025.0078l-.0459-.0381a.3428.3428,0,0,1-.2818-.1182v-.0947l-.1255-.0684-.0307-.08a.3.3,0,0,0-.0835-.0987v-.0615l-.0874-.3691.0151-.2627.03-.1485v-.164l.042-.1407-.0152-.1025a.1517.1517,0,0,0,.0533-.0859.5109.5109,0,0,1,.0454-.1163c-.01-.0449-.02-.11-.03-.1933l.0684-.0576-.0684-.0762a.3346.3346,0,0,0,.0532-.11l-.0381-.2324a.5885.5885,0,0,1,.023-.1631.1284.1284,0,0,0,.103.0684.84.84,0,0,0,.1484-.03.1656.1656,0,0,1-.0078-.0537.1166.1166,0,0,1,.0611-.0947,1.4528,1.4528,0,0,1,.1714-.3584.1891.1891,0,0,0,.0722-.1563h.0381l.0381-.0761.0454-.0186a.298.298,0,0,1,.08-.1142.51.51,0,0,0,.2095-.1788.1726.1726,0,0,0,.0644.0079c.0078,0,.0278-.0293.061-.0879.0889-.03.1358-.0459.1407-.0459a.0933.0933,0,0,1,.0688.0459l.0723-.0157.0381.0313h.0454a.1583.1583,0,0,0,.1562.125h.023a.1219.1219,0,0,0,.0493.08l-.0342.0156c.0889.043.1333.1426.1333.3008l-.0229.0869.0229.2168-.0381.0351-.0874.2315-.1562.1943-.0078.11a2.3572,2.3572,0,0,1-.4566.3125c-.01.03-.0268.0459-.0493.0459a.2734.2734,0,0,1-.061-.0157l-.1714.1182h-.103l-.1485.0684-.0644-.0381a.6075.6075,0,0,0-.16-.03.373.373,0,0,0-.1177.2852l-.0532.0644a.86.86,0,0,1-.0381.2022l-.042.0224.042.2823-.042.038.0074.0879-.0074.1065a1.4015,1.4015,0,0,0,.0191.1445c.0127.0781.0327.124.061.1367-.0127.0362.0117.0791.0742.13a.5544.5544,0,0,0,.2.1065v.0459l.2017.03.29.0147.1939-.0225a.8575.8575,0,0,1,.1714-.1025l.061-.0918h.0723l.0078-.0381a.675.675,0,0,0,.1846-.0781.0651.0651,0,0,0,.017-.04.0728.0728,0,0,1,.0684-.0449l.023-.05a.2518.2518,0,0,0,.2128-.2246A.1416.1416,0,0,1,33.7939,58.4427Zm-.64-1.7783c.02-.002.0542-.0342.1025-.0947l.023-.0918a1.62,1.62,0,0,0,.11-.2031.33.33,0,0,0,.0152-.1084.8893.8893,0,0,0-.0532-.2286l-.1558-.0537a.4.4,0,0,1-.08.0157l-.0459-.0157c-.0381,0-.0644.0235-.08.0684a.6338.6338,0,0,0-.2094.0576l-.023.0527a.071.071,0,0,0-.03-.0068.05.05,0,0,0-.021.0039.0432.0432,0,0,0-.0171.0108l-.0156.0175a.0954.0954,0,0,0-.0132.0244l-.0112.0323-.0117.0342a.2723.2723,0,0,1-.0474.0673l-.0571.0684-.11.209-.0571.05a.1791.1791,0,0,0-.042.0986,1.63,1.63,0,0,1-.2055.3652l.0532.0313.0268.0645.1294.038a.6507.6507,0,0,1,.2359-.1025l.0229-.0459a.2109.2109,0,0,0,.061.0146.0931.0931,0,0,0,.0723-.0449l.0913-.0156.0572-.0947h.0532l.0381-.084a.27.27,0,0,0,.1943-.0957Z"/><path class="cls-1" d="M49.0532,58.7777a.803.803,0,0,1-.2094.4033.2236.2236,0,0,1-.1255-.084l-.1412-.2207-.0532-.1221-.1025-.3613v-.3506l-.023-.3037.023-.1719-.023-.1484v-.2168l-.0722-.1025-.0308.0644-.06.0078-.1182.2735-.1411.2021H47.915l-.019.08a.4364.4364,0,0,1-.0439.1025c-.0215.0381-.0474.084-.0782.1368l-.2094.2324-.1636.2441-.1787.1865a1.3523,1.3523,0,0,1-.1411.1944l-.1065.083a.8687.8687,0,0,0-.1294.16l-.1333.0459a.35.35,0,0,0-.0913.084l-.0913.0186a.52.52,0,0,0-.16.0762l-.0683-.0157-.023.0459-.0874-.0078-.2475-.1865a.5937.5937,0,0,1-.0913-.2266c-.02-.0947-.0494-.1435-.0874-.1465l-.042.0157.08-.126-.038-.125.03-.1-.0151-.1485.0532-.2353v-.2178l.0532-.0791v-.1943a.4237.4237,0,0,0,.0572-.1787l.0307-.0235v-.1406l.0684-.126.0078-.1064a.5205.5205,0,0,0,.0723-.1563l.0381-.2353a.2189.2189,0,0,1,.0874-.1416l.0073-.083a.3532.3532,0,0,1,.05-.1035.222.222,0,0,0,.042-.1172.9447.9447,0,0,1,.1938-.1641l-.0151-.03c.0332-.0078.0517-.0205.0571-.038a.0959.0959,0,0,0,.0459.0078.11.11,0,0,0,.0454-.0078l-.0381-.0157.335-.0947q.0724-.0074.1333-.0117c.0405-.002.061-.0117.061-.0264v-.0078l.1255-.0078.0684.0381.042-.0147a.0556.0556,0,0,0,.061.0381.07.07,0,0,0,.03-.0078l.126.0078v.0342l.03-.0156.1182.0986.1177-.03.0688.126.1255.1025a.4157.4157,0,0,1,.0684.1143l.1255.0684q.0615.0644.0952.0644c.0156,0,.0254-.01.0307-.03l.0533-.2666.061-.1406-.023-.2012.0342-.3662L48.49,55.26a.2488.2488,0,0,0,.0572-.1641l-.0342-.0683.0264-.2129-.0264-.2168.0342-.0459-.0342-.0234a.1.1,0,0,0,.0415-.0645.1187.1187,0,0,0-.0151-.0459.2966.2966,0,0,0,.0229-.11.3086.3086,0,0,0-.0229-.1143h.038a.1556.1556,0,0,1-.0151-.0723c0-.0322.0254-.0634.0762-.0908l-.03-.02.0381-.0069c.0278,0,.0469.0215.0566.0645.0381.0078.0611.04.0689.0986h-.0381l.0073.126-.0073.0723h-.0459l.084.0908-.0308.11.0537.126-.0381.0537a.4.4,0,0,1,.0381.1407.2025.2025,0,0,1-.0229.0908l.061.05c-.0254.0156-.0381.03-.0381.0459,0,.0254.0215.0459.0645.06v.0235a.1067.1067,0,0,1-.0645.0869v.0693a5.907,5.907,0,0,1-.061.6543.1473.1473,0,0,1,.0073.0567.4081.4081,0,0,1-.0381.1484l.0308.0693-.0459.1787-.0229.1905a.4371.4371,0,0,1-.0494.1289l.023.0879-.0459.1406.0459.1064-.0611.2442.0381.1865-.0229.11.0156.0986-.0459.0234a1.2048,1.2048,0,0,1,.0762.1328c0,.0225-.0152.0381-.0459.0459l.0156.0489-.0156.0234.0537.0527-.0381.126.0532.1709-.0229.0537.0229.0576-.0459.1407.0381.038h.065l.0532.0684.11-.03.0381.0606ZM48.3105,56.65l-.0454-.0157-.08-.0722-.0645-.0381a.2988.2988,0,0,1-.0591-.1006.4552.4552,0,0,0-.1084-.15.1669.1669,0,0,1-.0688-.0459v-.0537l-.1177-.0225-.1143-.0644a.2944.2944,0,0,0-.0932-.0381q-.0594-.0162-.1582-.0381l-.2359.03-.0688.0381-.0723-.0537-.1216.038h-.1562l-.0264.0694-.0459.0185c0,.043.01.0684.03.0762a.6758.6758,0,0,1-.1938.1709l-.0533.1416-.0722.0381-.0689.2129-.0229.2324-.0723.0684v.1328q-.0836.0762-.0835.1259l.0151.1866-.1254.2431-.0308.1719-.0073.2627.0229.0566-.0537.1065.0381.0654-.0606.1289a1.31,1.31,0,0,1,.1065.2823l.0723.038-.0152.0489h.0762a.3332.3332,0,0,0,.0952.0537c.0049,0,.0171-.0127.0361-.0381a.1452.1452,0,0,1,.12-.0381v.03a.1643.1643,0,0,0,.061-.0723c.0405,0,.061-.0176.061-.0527l.0723-.0313.03.0235.0229-.0879.1563-.0606.0151-.0683.11-.0655v-.038l.084-.087.0263.0108c.02,0,.03-.0186.03-.0567H47.15v-.0459l.1255-.0527-.03-.1182.0835-.0537-.0532-.0566a.11.11,0,0,0,.0454.0068.17.17,0,0,0,.0952-.0381l.0078-.03.0835-.0078.0879-.2276.0762-.0762.03-.1416.0952-.03a.93.93,0,0,1,.1714-.2354v-.1074l.0722-.03.1944-.3916Z"/><path class="cls-1" d="M53.2285,57.2894l-.0532.1631.03.0683-.0264.1836a.3737.3737,0,0,1-.0571.1211v.0918l-.0572.1563-.0459.0683a.8627.8627,0,0,0-.0761.1973l-.0567.0234-.0307.1026-.0835.0537-.065.1406-.1142.0537-.0113.1026-.0991.0381c-.0483.0634-.0791.1035-.0932.121a.2221.2221,0,0,1-.1026.0538.4532.4532,0,0,0-.1089.0459c-.0127.081-.0849.1269-.2168.1367a.1373.1373,0,0,1-.11.0576.2252.2252,0,0,1-.061-.0156.4478.4478,0,0,1-.1978.1142l-.061.0948-.1026-.0606-.0229.0459-.1143-.0459-.2739-.0264a1.1759,1.1759,0,0,0-.2022-.2783l.0308-.1025-.11-.2813.0454-.0918-.0454-.2129.0454-.122c0-.0127-.0039-.0459-.0113-.1006a1.0057,1.0057,0,0,1-.0117-.1055.1484.1484,0,0,1,.08-.1289V57.91a.3478.3478,0,0,1,.0459-.1709h.0454a.2194.2194,0,0,0,.0571-.1484l-.0229-.0537.0229-.1182v-.0762a.2664.2664,0,0,0,.0689-.1709l-.023-.1259a.157.157,0,0,1,.023-.0909c.0786-.041.1177-.08.1177-.1181a.1406.1406,0,0,0-.03-.08l.0762-.1338a.1189.1189,0,0,1,.0473-.0488.1951.1951,0,0,0,.04-.0274l-.0152-.0752a.1163.1163,0,0,0,.1216-.1259.4631.4631,0,0,0-.0225-.1407.3355.3355,0,0,0,.3423-.2666h.05c.0352-.0361.0606-.0537.0762-.0537a.5642.5642,0,0,1,.0664.02.6555.6555,0,0,0,.1846.0185l.122-.0527v.0527a.4517.4517,0,0,1,.1978.0879h.1064c.0254.0508.05.0762.0723.0762l.0156-.0078a.6041.6041,0,0,0,.1787.1943l.0381.0947.0723.03.1221.18.1255.3574v.0723Zm-.2475.2168a.1685.1685,0,0,0,.0459-.0957A.08.08,0,0,0,53,57.3558c-.0176-.02-.0264-.0312-.0264-.0361h.0454a.1473.1473,0,0,0-.0532-.08l.0152-.0225-.0533-.1259.0152-.1709-.0723-.1221c-.0557-.0361-.0835-.0625-.0835-.08v-.0224a.0383.0383,0,0,0-.0288-.04c-.019-.0068-.0283-.0176-.0283-.0332v-.0068a.5948.5948,0,0,1,.0342-.1l-.0494-.0381-.0761-.0069-.0308-.0576.0308-.0459-.1031-.0527-.0761-.0723-.2207-.0918-.0913-.0185c-.15,0-.2232.041-.2207.125l.0112.2588-.1558.0078-.2436.1484-.023.084-.0874.0566-.0381.2246-.0761.0538c-.0157.0078-.023.0439-.023.11a.5174.5174,0,0,0,.0152.1406l-.0953.0537c-.02.01-.03.06-.03.1485a.1582.1582,0,0,1-.0723.1181v.0762l-.0688.11v.0683l-.0225.0489.0151.1074-.103.251.0342.0839v.1827l-.0342.1289.0078.19.1143.1484a.3593.3593,0,0,0,.1367.084l.0229.0381.0533-.0156.05.0156.0913-.0381.1865.0078.0874-.0234.0229-.0527.08.0078c.0811,0,.1216-.0274.1216-.08l.11.03.0229-.0606.0723-.0078.0381-.0879c.0556-.043.0864-.0781.0913-.1064h.1255l.038-.08.1333-.1182.05-.0722a.2431.2431,0,0,1,.0684-.0645l.11-.0576a.9643.9643,0,0,1,.0683-.2168l-.0151-.0684.11-.05-.0151-.0381c.03-.0429.0586-.0791.084-.11h-.0381a.129.129,0,0,0,.03-.0684.1928.1928,0,0,0-.0113-.0566.188.188,0,0,1-.0117-.0459.2871.2871,0,0,1,.023-.1064.2972.2972,0,0,0,.0229-.0723A.04.04,0,0,0,52.981,57.5062Z"/><path class="cls-1" d="M58.0884,58.4652a.3537.3537,0,0,1,.0683.2168.1438.1438,0,0,1-.0078.0654l-.1855.2246-.0235.0947-.1093.03-.0391.0762-.1172.0234h-.123l-.334-.0459-.0957.0459-.125-.0459-.1641.03-.0605-.0537c-.1758.0312-.2676.0459-.2735.0459l-.1425-.03-.27-.0156-.1714.0156-.0947-.0263a.6091.6091,0,0,0-.1411-.0274.817.817,0,0,0-.2549.0537l-.1484-.0537a1.3916,1.3916,0,0,0-.4531.0615l-.0152.0869-.0722.0313-.0381.0527-.0689.0235-.08-.0313-.0229-.0683v-.1026l.0229-.0537.1026-.0869a.3518.3518,0,0,1,.082-.12.41.41,0,0,1,.1274-.0586c.01-.0108.0308-.0313.063-.0615a.14.14,0,0,0,.0474-.1026v-.0156c.0581-.002.0913-.0264.0991-.0723a1.1055,1.1055,0,0,0,.1787-.1045.0674.0674,0,0,0,.0191-.0478.3262.3262,0,0,1,.0991-.0723.4936.4936,0,0,1,.1714-.2168c.0708-.0049.1133-.0332.1274-.084a.3244.3244,0,0,1,.0664-.1289h.042v-.0537L55.9,57.849v-.0157a.5675.5675,0,0,1,.0459-.1328.1318.1318,0,0,0,.0913-.11.2853.2853,0,0,1,.1563-.084l.0073-.0615.0869-.0567.08-.122a.4521.4521,0,0,1,.1-.1026.1323.1323,0,0,0,.1035-.126l.1055-.083.0429-.1035.0762-.0527.1328-.2207.125-.084a.3755.3755,0,0,1,.0918-.1641v-.0722a.2228.2228,0,0,0,.1328-.0684c-.0175-.0635-.07-.0947-.1562-.0947h-.0293l-.1953.0947-.1094-.0156-.0957.0312-.1367-.0156-.0957.03-.08-.0381-.2319.0762a.7633.7633,0,0,0-.1787-.0225,1.184,1.184,0,0,0-.2247.0225l-.08-.0381-.1636.0234-.0762-.0234-.1484.0381-.2437-.0528-.1943.0147-.35-.0869-.1333.0342-.1025-.05-.0381-.1221.0947-.0723.0762.0235a.3364.3364,0,0,1,.1562-.0616l.103.0381h.1485c0,.0537.0224.08.0683.08l.0381-.0078h.1563l.11.03.1328-.0225.1182.0381.1064-.0225h.023l.0952-.0078.1333.0147.0459-.03.6841.0078.0879.0225.1269-.0567h.0762v-.0537h.3106l.1269-.03.1211.03.1758-.0684.1133.0079.1406-.0225h.0156c.0606,0,.0977.0547.1113.1631l-.0722.0459-.0684.0605-.1113.05-.2324.24-.0723.0068-.18.252a.3735.3735,0,0,0-.2851.3046l-.1016.0909-.1406.21-.0762.041-.32.419-.1109.0381-.1025.1406-.0683.0234-.023.0723L55.79,58.13l-.0723.1338-.1485.1289-.1787.2285-.0839.0225-.0152.0537-.0571.03c.0229.0537.0547.08.0952.08a.6427.6427,0,0,1,.1714.0839l.0454-.0156.3848-.0078.0835.042.414-.0342.3887.0723a.1333.1333,0,0,1,.0723-.0225c.0214,0,.0468.0225.0761.0684l.1407-.084.1425.0537.125-.0381.1368.0225.1328-.0078a.1957.1957,0,0,1,.1406-.0645.3272.3272,0,0,1,.0976-.1045c.0215-.0088.0372-.0361.043-.082a.1453.1453,0,0,0,.0762-.1328v-.0381l.0273-.0762Z"/><path class="cls-1" d="M62.1421,57.2894l-.0527.1631.03.0683-.0273.1836a.37.37,0,0,1-.0567.1211v.0918l-.0576.1563-.0449.0683a.8171.8171,0,0,0-.0762.1973l-.0576.0234-.03.1026-.0839.0537-.0645.1406-.1143.0537-.0117.1026-.0986.0381c-.0479.0634-.0791.1035-.0928.121a.2261.2261,0,0,1-.1035.0538.4377.4377,0,0,0-.1084.0459c-.0127.081-.085.1269-.2168.1367a.1376.1376,0,0,1-.11.0576.22.22,0,0,1-.0606-.0156.4541.4541,0,0,1-.1982.1142l-.0606.0948-.1035-.0606-.0225.0459-.1142-.0459-.2744-.0264a1.1423,1.1423,0,0,0-.2012-.2783l.03-.1025-.11-.2813.0459-.0918-.0459-.2129.0459-.122c0-.0127-.0039-.0459-.0117-.1006a1.0057,1.0057,0,0,1-.0117-.1055.1492.1492,0,0,1,.08-.1289V57.91a.3532.3532,0,0,1,.0459-.1709h.0459A.2194.2194,0,0,0,59.9,57.59l-.0225-.0537.0225-.1182v-.0762a.2657.2657,0,0,0,.0684-.1709l-.0225-.1259a.1643.1643,0,0,1,.0225-.0909c.0791-.041.1181-.08.1181-.1181a.137.137,0,0,0-.03-.08l.0761-.1338a.1212.1212,0,0,1,.0479-.0488.2247.2247,0,0,0,.04-.0274l-.0156-.0752a.1168.1168,0,0,0,.1221-.1259.453.453,0,0,0-.0235-.1407.3357.3357,0,0,0,.3428-.2666h.05c.0352-.0361.0605-.0537.0762-.0537a.5407.5407,0,0,1,.0664.02.6524.6524,0,0,0,.1845.0185l.1221-.0527v.0527a.45.45,0,0,1,.1973.0879H61.45c.0254.0508.0488.0762.0723.0762l.0146-.0078a.6056.6056,0,0,0,.18.1943l.0371.0947.0733.03.1211.18.1259.3574v.0723Zm-.2471.2168a.1684.1684,0,0,0,.0449-.0957.0817.0817,0,0,0-.0263-.0547c-.0176-.02-.0264-.0312-.0264-.0361h.0459a.1489.1489,0,0,0-.0537-.08l.0156-.0225-.0537-.1259.0156-.1709-.0722-.1221c-.0567-.0361-.084-.0625-.084-.08v-.0224a.0384.0384,0,0,0-.0283-.04c-.02-.0068-.0293-.0176-.0293-.0332v-.0068a.6061.6061,0,0,1,.0351-.1l-.05-.0381-.0762-.0069-.03-.0576.03-.0459-.1025-.0527-.0762-.0723-.2207-.0918-.0918-.0185c-.1494,0-.2236.041-.2207.125l.0118.2588-.1563.0078-.2441.1484-.0225.084-.0879.0566-.0381.2246-.0761.0538c-.0147.0078-.0225.0439-.0225.11a.5.5,0,0,0,.0156.1406l-.0957.0537c-.02.01-.03.06-.03.1485a.1584.1584,0,0,1-.0722.1181v.0762l-.0684.11v.0683l-.0234.0489.0156.1074-.1025.251.0341.0839v.1827l-.0341.1289.0068.19.1143.1484a.3611.3611,0,0,0,.1377.084l.0224.0381.0537-.0156.0489.0156.0917-.0381.1866.0078.0879-.0234.0224-.0527.08.0078c.0811,0,.1221-.0274.1221-.08l.11.03.0225-.0606.0722-.0078.0381-.0879c.0557-.043.086-.0781.0918-.1064h.125l.0381-.08.1338-.1182.0488-.0722a.2485.2485,0,0,1,.0684-.0645l.1113-.0576a.8938.8938,0,0,1,.0684-.2168l-.0156-.0684.11-.05-.0146-.0381c.03-.0429.0576-.0791.083-.11h-.0381a.1279.1279,0,0,0,.0312-.0684.1828.1828,0,0,0-.0117-.0566.188.188,0,0,1-.0117-.0459.28.28,0,0,1,.0234-.1064.3081.3081,0,0,0,.0225-.0723A.0407.0407,0,0,0,61.895,57.5062Z"/><path class="cls-1" d="M66.3247,56.0941l-.0225.0947-.2285.03-.1484.11-.0986.0157-.126.0761-.126.0567a.4832.4832,0,0,1-.1484.1v.0381l-.1143.0566-.08.126h-.083l-.042.1221-.0879.0566a.224.224,0,0,0-.0839.084l-.0762.1406a.2454.2454,0,0,0-.1026.209l-.038-.0147-.0147.0489-.0576.0381-.0527.1338a.3588.3588,0,0,0-.084.1787l-.0723.03V57.99a.2053.2053,0,0,0-.0381.084l.0147.0263-.0762.03.0234.0606a1.1534,1.1534,0,0,1-.1181.2822l.0381.0986-.0762.126a.6844.6844,0,0,1,.0156.1182l-.0156.125.0342.1377a.2088.2088,0,0,0,.0341.0459l.0577.0566a.444.444,0,0,1-.0957.1328l-.1026-.0381.0147.0694-.1709-.0313v-.1025l-.0225-.0684.0225-.126-.0225-.0527.0147-.2666-.0147-.1787c-.0361-.0127-.0537-.0283-.0537-.0459a.1911.1911,0,0,1,.0537-.0957V58.264a.8492.8492,0,0,0-.0078-.1338l.03-.0381-.03-.1484.0225-.1182-.0225-.0722.0225-.209-.0381-.0615.0234-.0723-.0459-.1553.0147-.122a.9452.9452,0,0,0-.0147-.1407l.0225-.0381-.0459-.2666-.0567-.038.0567-.1338a.43.43,0,0,1-.0791-.2588v-.1065a.21.21,0,0,1-.0459-.0722.4222.4222,0,0,1,.1943-.126l.0567.0156a.3912.3912,0,0,0,.0839.1826l-.0156.1944.0762.59a.1384.1384,0,0,1-.0459.1025l.0381.1641-.0225.1182.0225.125-.0147.1.0567.1181-.0342.0225.0273.1787.0606.0156.0263-.1523a.5262.5262,0,0,1,.0918-.1367.2581.2581,0,0,0,.0987-.1944V57.35l.05-.0224c.0078,0,.0136-.01.0185-.0293s.0147-.0283.0274-.0283h.0224l.0459-.1524.1182-.08.0068-.0449h.0537l-.0224-.0879.1172-.0537.0078-.0947.11-.0156a.357.357,0,0,0,.1143-.1485l.0723-.0146a.8783.8783,0,0,1,.1406-.1416.0372.0372,0,0,0,.0381-.0225l.1259-.0683.03-.0577.0684-.038a.6608.6608,0,0,1,.2744-.1485h.03a.156.156,0,0,0,.11-.0381l.0684.0235a.1692.1692,0,0,1,.0879-.0381A.3935.3935,0,0,1,66.3247,56.0941Z"/><path class="cls-1" d="M71.1216,57.6624a.173.173,0,0,0-.08.1407.4926.4926,0,0,0,.0068.0761l.0459.2813-.0459.3047.0157.126-.0381.1064.0224.3428-.0224.0488v.2783l-.0156.2207.0312.0762-.0156.5137.0381.0957-.0381.0459.0224.1406-.038.0381.0312.1182H71.01l-.0147.0605v.1182l-.0381.0947.0156.0683-.164.29-.0156.1484-.042-.0078-.0684.0908a.9235.9235,0,0,0-.1406.1983l-.1406.084a.2274.2274,0,0,1-.2247.1787.0312.0312,0,0,1,.0079.0224c0,.0186-.0108.0274-.0313.0274l-.0342.03a.2936.2936,0,0,0-.1289.0918h-.0879l-.0224.03-.1035-.0234-.1553.1035-.0918-.0156-.251.0381-.0684-.0079-.038.0079-.2286-.0381h-.0615l-.0791-.0723-.0381.0078-.2744-.0918-.1943-.03-.0459-.08-.125-.0147-.0537-.1338L68,61.77l-.1064-.1485-.11-.0537-.1025-.1484a.2376.2376,0,0,0-.0655-.0567l-.121-.0693.0419-.0986-.0732-.08.0078-.0459a.5348.5348,0,0,0-.0527-.2012.4615.4615,0,0,1-.0156-.11.5277.5277,0,0,1,.03-.1563l.03-.0879v-.0224l.0537-.03.02-.0381.03.0078.0186-.0918a.6257.6257,0,0,1,.1826-.2129l.11-.03.1866-.1641.2177.0156c.0352-.0537.0664-.08.0948-.08.0351,0,.0537.0214.0537.0644a.09.09,0,0,1-.0078.0381l-.1026.0459-.0693.0566a.7568.7568,0,0,1-.1787.0684l-.0528.11h-.11a1.1657,1.1657,0,0,1-.2178.27l.0078.1485a.35.35,0,0,0-.0644.1982l-.0381.0225.1709.4033.1562.0576.0235.0908.2431.2364.0918.0263a.3267.3267,0,0,1,.0987.0577l.11.1025h.126l.0947.0918.126-.0156.0527.05.4453-.02.0616-.0146v.0146c0,.0284.01.042.03.042a.0555.0555,0,0,0,.0186-.0146.2738.2738,0,0,1,.2021-.08h.0381l.2471-.1035V61.85q.05-.038.05-.05h-.0264a.0642.0642,0,0,1,.0489-.0156.085.085,0,0,1,.0381.0078c.0078-.0459.0312-.0683.0693-.0683h.0264l.0146-.0459c.0361,0,.0537-.0215.0537-.0645h.0078c.0274,0,.0489-.02.0645-.0576a.0831.0831,0,0,1,.0683-.06l.0235.02a.2191.2191,0,0,1,.1172-.1641.2743.2743,0,0,0,.0918-.2129h.042c.0781-.1679.1357-.3.1709-.3964l-.0147-.0225.0147-.1983.038-.0224V60.32l.03-.0537-.0683-.0879a.3771.3771,0,0,0,.0683-.0762.4464.4464,0,0,0-.0146-.0586.4007.4007,0,0,1-.0157-.12v-.03l.0157-.32v-.4521l-.0381-.0879.0381-.1563-.0157-.1787v-.4111l-.0146-.0879.03-.083-.03-.0733.03-.0683-.0157-.2891-.0722-.0683.0722-.0723-.0146-.0615.0146-.1172-.038-.0459.0156-.0957-.05-.0908a.2276.2276,0,0,1-.0987.06l-.038.0957-.0645.0381-.0156.0908-.126.0879.0156.0381-.0605.0869-.0537.0156-.0225.0381-.1182.0381v.1025H70.12l-.0224.0918-.2627.2432-.1787.2021-.0957.03-.045.0723-.18.164-.0722.0147a1.7311,1.7311,0,0,1-.1406.126l-.0225.0683-.0693.0381h-.0645l-.0381.0723-.084.0156-.1552.1563-.1416.0224-.0567.0537c-.0381.0127-.09.0313-.1562.0567l-.0225.06a.4161.4161,0,0,1-.1787.0235c-.1123,0-.1816-.0235-.21-.0684l-.1562-.2666-.0147-.126-.08-.2851v-.252l-.03-.0752.0488-.19-.0342-.1221.0342-.0342.0078-.1.0537-.1172-.0078-.18.0381-.1025-.0381-.0684.0762-.3574-.0234-.2363.0234-.21-.0684-.289.03-.0684-.03-.0566.0606-.1524-.03-.0654.0527-.0449V55.766l.0879-.0069a.3559.3559,0,0,0,.1026.1553L68,55.9681l.05.0117-.0234.0987.0615.11-.0234.0537.0234.125.0381.03-.0537.1182.0459.2021-.0918.126.0459.0527-.0459.2969v.2744l-.0342.0381-.03.4033-.084.11.0157.0722v.1787l.0381.1065-.0381.0879.0156.1338-.0313.0605.0313.0684v.0957l.083.0869.0273.0918.0528-.0078.0156.0459.0605-.0381.1641.0146.0567-.125.1943-.0761.0078.0224a.1086.1086,0,0,1,.06-.0908.722.722,0,0,0,.1319-.0937.5172.5172,0,0,1,.165-.0967l-.0078.042c.0254-.0108.0381-.0244.0381-.042a.141.141,0,0,0-.0147-.0381.5979.5979,0,0,0,.253-.1777.6706.6706,0,0,1,.3633-.1954l.0957-.1562.0146.0459v-.0693a.1314.1314,0,0,0,.1221-.125L69.88,57.78a.1141.1141,0,0,0,.0761-.11v-.0225a.6622.6622,0,0,1,.1973-.1025l.0156-.0615a1.6281,1.6281,0,0,0,.1944-.2588.3469.3469,0,0,0,.1631-.1553l.1416-.2979-.0079-.1787.0606-.03v-.1485l-.0381-.126.0234-.1142-.0693-.041-.0068-.0235a.1806.1806,0,0,1,.04-.0849.375.375,0,0,0,.0508-.1016l.03-.0224.0078-.0538a.1562.1562,0,0,1,.0879-.03l.1631.164.0078.0909.0039.0761a.7369.7369,0,0,0,.0722.1485l-.0459.05.0157.1064-.0157.0879.0655.0684-.0655.0078v.11l-.038.1407.038.2021-.0068.1484.0225.0528-.0157.1406Z"/><path class="cls-1" d="M86.2476,58.3392l-.0723.1035.05.03a.4966.4966,0,0,1-.1035.1182l-.0147.0986-.0957.0078-.0263.0566a.5048.5048,0,0,1-.13.1l-.0528-.0157a.38.38,0,0,1-.2168.0723l-.05-.0342-.0078.0645-.1787-.0869a.26.26,0,0,0-.084.0566l-.03-.0342-.2364-.0224-.1406.0224-.0683-.06-.1641.0224-.0791-.0683a.2966.2966,0,0,1-.1221.0381.2349.2349,0,0,1-.1181-.0381.1172.1172,0,0,0-.0381.084.45.45,0,0,0,.0156.0722.4274.4274,0,0,1,.0146.0908.4928.4928,0,0,1-.038.1485l.03.1035-.0644.0762a1.9034,1.9034,0,0,1,.0263.3037l-.0263.2178.0263.2734-.0722.1035.0459.1484-.0459.1788.0722.0224v.084c-.038.0078-.0566.0342-.0566.08a.4976.4976,0,0,0,.0146.0761l.0235.0079a.3253.3253,0,0,0-.0684.1484l-.0156.6162c-.0029.0889-.0225.1338-.0605.1338-.0127,0-.05-.0059-.11-.0156l.0078-.1485-.0381-.3271.0606-.126.0224-.2324-.0449-.2666c.04-.0274.0606-.0557.0606-.083a1.21,1.21,0,0,0-.0459-.1719l.0537-.1025-.0537-.1709.0537-.1338-.0235-.1406.0723-.0459a.1233.1233,0,0,1-.11-.126,1.6536,1.6536,0,0,1,.0615-.2813l-.0459-.0918.03-.125-.03-.03.03-.0459-.03-.2823.0459-.373-.0537-.08.11-.0527-.0566-.0157-.0459-.08-.0459-.0225.0381-.0225.0078.0225.0224-.0381-.03-.03.0879.0157-.0342-.05.0342.0078v-.0381c-.0381-.0176-.0577-.0361-.0577-.0537a.2388.2388,0,0,1,.0235-.1026l-.0235-.0839c-.03-.0079-.0449-.0215-.0449-.042,0-.01.0117-.0147.0371-.0147H84.04v-.0234h.05l-.0577-.0684.0235-.1025v-.0918l.0068-.0567-.03-.1259.03-.1367-.03-.11.03-.1406-.03-.0537.0079-.126-.0079-.0869.0079-.1221a.2957.2957,0,0,1-.0528-.1787h-.0693l-.0645-.042-.1181.0947v-.0224l-.0528.0224h-.11l-.0235.0459-.0908.0078-.0722.0723-.0918-.0156-.0645.1142-.1-.0459-.0225.0616c-.1035-.0586-.1562-.1153-.1562-.1719,0-.0147.0146-.03.042-.0469s.042-.0342.042-.0517a.3283.3283,0,0,0-.0225-.08.6183.6183,0,0,1,.2734-.0684l.0235.0156.0683-.0722a.9091.9091,0,0,1,.209-.1074l.0264.0234.0693-.08.1709.0117.126-.042.0225.0147.03-.1631h.0723a.3855.3855,0,0,0,.1865.2051l.0313-.0567.0527.042.042-.0273a.5373.5373,0,0,1,.2227.0654.6038.6038,0,0,0,.1728.0684.2167.2167,0,0,1,.126.0644l.0459-.0341.0146.0566.1036.0537.0068-.0225.0693.0225.0567.0762a.2732.2732,0,0,0,.08.0722l.1289.0762.0157.042.0957.03v.0224a.1833.1833,0,0,1,.1064.1416l.0869.0528.0616.1416h.038v.0722l.045.045a.3835.3835,0,0,1,.042.1338l.0615.0146a.2421.2421,0,0,0,.1025.2021v.1026l.0606.084-.0069.0947a.77.77,0,0,0,.0381.0879.471.471,0,0,1,.041.1748l-.0381.0156.0157.0645v.0615l.0381.0068-.0538.1563Zm-.209-.2393-.0078-.0644.0078-.0459-.042-.1406.0342-.0762-.05-.1035-.0079-.0947-.0683-.13-.03-.1026-.1406-.2509-.08-.0684L85.6,56.8509l-.1025-.0381-.1065-.1484v-.03l-.0879-.0263-.0761.0078-.1026-.1377-.0537.0156-.041-.0723-.1143-.0234H84.82l-.0146-.03-.0537.03-.042-.0449-.0528.0146-.0312-.0527-.0723.0146-.247-.042a.1116.1116,0,0,0-.0723.1036.0836.0836,0,0,0,.0137.04.378.378,0,0,1,.0127.1309l-.0264.164.0566.1709.0616.0576-.0616.1368.0157.1328-.0459.2822.03.06-.0381.0957.0694.0909-.0381.0263.0068.1.0616.0381-.0616.0723.0459.0762-.0761.1025.03.1563-.0068.1259.0381.1407.289-.02.0147.05a.4366.4366,0,0,1,.0537-.0644.9456.9456,0,0,1,.08.0869.2962.2962,0,0,0,.0586-.0166.1966.1966,0,0,1,.0478-.0137.5042.5042,0,0,1,.1328.03c.0157-.03.0342-.0449.0577-.0449.0126,0,.0224.01.03.03h.1221l.0947.0147.1182-.0449.0078.03a.7429.7429,0,0,0,.335-.0878h.0224c.041,0,.0615-.0225.0615-.0684l.0567.0225.0078-.087.0684-.0156.0156-.0762-.0235-.08.0577-.0459-.02-.045Z"/><path class="cls-1" d="M90.521,56.0941l-.0225.0947-.2285.03-.1484.11-.0987.0157-.1259.0761-.126.0567a.4856.4856,0,0,1-.1484.1v.0381l-.1143.0566-.08.126h-.083l-.042.1221-.0879.0566a.225.225,0,0,0-.084.084l-.0761.1406a.2454.2454,0,0,0-.1026.209l-.038-.0147-.0147.0489-.0576.0381-.0527.1338a.3588.3588,0,0,0-.084.1787l-.0723.03V57.99a.2053.2053,0,0,0-.0381.084L88.61,58.1l-.0762.03.0234.0606a1.1534,1.1534,0,0,1-.1181.2822l.0381.0986-.0762.126a.6946.6946,0,0,1,.0156.1182l-.0156.125.0342.1377a.2088.2088,0,0,0,.0341.0459l.0577.0566a.444.444,0,0,1-.0957.1328l-.1026-.0381.0147.0694-.1709-.0313v-.1025l-.0225-.0684.0225-.126-.0225-.0527.0147-.2666-.0147-.1787c-.0361-.0127-.0537-.0283-.0537-.0459a.1911.1911,0,0,1,.0537-.0957V58.264a.8492.8492,0,0,0-.0078-.1338l.03-.0381-.03-.1484.0225-.1182-.0225-.0722.0225-.209-.0381-.0615.0234-.0723-.0459-.1553.0147-.122a.9452.9452,0,0,0-.0147-.1407l.0225-.0381-.0459-.2666-.0567-.038.0567-.1338a.43.43,0,0,1-.0791-.2588v-.1065a.21.21,0,0,1-.0459-.0722.4222.4222,0,0,1,.1943-.126l.0566.0156a.3924.3924,0,0,0,.084.1826l-.0156.1944.0762.59a.1384.1384,0,0,1-.0459.1025l.0381.1641-.0225.1182.0225.125-.0147.1.0567.1181-.0342.0225.0273.1787.0606.0156.0263-.1523a.5262.5262,0,0,1,.0918-.1367.2581.2581,0,0,0,.0987-.1944V57.35l.05-.0224c.0078,0,.0136-.01.0185-.0293s.0147-.0283.0274-.0283h.0224l.0459-.1524.1182-.08.0068-.0449h.0537l-.0224-.0879.1172-.0537.0078-.0947.11-.0156a.357.357,0,0,0,.1143-.1485l.0722-.0146a.8859.8859,0,0,1,.1407-.1416.0372.0372,0,0,0,.0381-.0225l.1259-.0683.03-.0577.0684-.038a.6608.6608,0,0,1,.2744-.1485h.03a.156.156,0,0,0,.11-.0381l.0684.0235a.1692.1692,0,0,1,.0879-.0381A.3935.3935,0,0,1,90.521,56.0941Z"/><path class="cls-1" d="M93.9888,57.2894l-.0528.1631.03.0683-.0273.1836a.37.37,0,0,1-.0567.1211v.0918l-.0576.1563-.0449.0683a.8171.8171,0,0,0-.0762.1973l-.0576.0234-.03.1026-.084.0537-.0644.1406-.1143.0537-.0117.1026-.0986.0381c-.0479.0634-.0791.1035-.0928.121a.2261.2261,0,0,1-.1035.0538.4377.4377,0,0,0-.1084.0459c-.0127.081-.085.1269-.2168.1367a.1376.1376,0,0,1-.11.0576.2186.2186,0,0,1-.0605-.0156.4541.4541,0,0,1-.1982.1142l-.0606.0948-.1035-.0606-.0225.0459-.1142-.0459-.2744-.0264a1.145,1.145,0,0,0-.2012-.2783l.03-.1025-.11-.2813.0459-.0918-.0459-.2129.0459-.122c0-.0127-.0039-.0459-.0117-.1006a1.0057,1.0057,0,0,1-.0117-.1055.1493.1493,0,0,1,.08-.1289V57.91a.3543.3543,0,0,1,.0459-.1709H91.69a.219.219,0,0,0,.0567-.1484l-.0225-.0537.0225-.1182v-.0762a.2655.2655,0,0,0,.0683-.1709l-.0224-.1259a.1651.1651,0,0,1,.0224-.0909c.0791-.041.1182-.08.1182-.1181a.1371.1371,0,0,0-.03-.08l.0762-.1338a.1212.1212,0,0,1,.0479-.0488.233.233,0,0,0,.04-.0274l-.0156-.0752a.1167.1167,0,0,0,.122-.1259.4528.4528,0,0,0-.0234-.1407.3357.3357,0,0,0,.3428-.2666h.05c.0351-.0361.06-.0537.0762-.0537a.5464.5464,0,0,1,.0664.02.6519.6519,0,0,0,.1845.0185l.1221-.0527v.0527a.4512.4512,0,0,1,.1973.0879h.1074c.0254.0508.0488.0762.0723.0762l.0146-.0078a.6056.6056,0,0,0,.18.1943l.0371.0947.0732.03.1211.18.126.3574v.0723Zm-.2471.2168a.1684.1684,0,0,0,.0449-.0957.0821.0821,0,0,0-.0263-.0547c-.0176-.02-.0264-.0312-.0264-.0361H93.78a.1489.1489,0,0,0-.0537-.08l.0156-.0225-.0537-.1259.0156-.1709-.0723-.1221c-.0566-.0361-.0839-.0625-.0839-.08v-.0224a.0384.0384,0,0,0-.0284-.04c-.02-.0068-.0293-.0176-.0293-.0332v-.0068a.6124.6124,0,0,1,.0352-.1l-.05-.0381-.0762-.0069-.03-.0576.03-.0459-.1025-.0527-.0762-.0723L93,56.1507l-.0918-.0185c-.1494,0-.2236.041-.2207.125l.0117.2588-.1562.0078-.2442.1484-.0224.084-.0879.0566-.0381.2246-.0762.0538c-.0146.0078-.0224.0439-.0224.11a.5.5,0,0,0,.0156.1406l-.0957.0537c-.02.01-.03.06-.03.1485a.1584.1584,0,0,1-.0722.1181v.0762l-.0684.11v.0683l-.0234.0489.0156.1074-.1026.251.0342.0839v.1827L91.69,58.72l.0069.19.1142.1484a.3621.3621,0,0,0,.1377.084l.0225.0381.0537-.0156.0488.0156.0918-.0381.1866.0078.0878-.0234.0225-.0527.08.0078c.081,0,.1221-.0274.1221-.08l.11.03.0225-.0606.0722-.0078.0381-.0879c.0557-.043.086-.0781.0918-.1064h.125l.0381-.08.1338-.1182.0488-.0722a.2485.2485,0,0,1,.0684-.0645l.1113-.0576a.8938.8938,0,0,1,.0684-.2168l-.0157-.0684.11-.05-.0147-.0381c.03-.0429.0577-.0791.083-.11h-.038a.1279.1279,0,0,0,.0312-.0684.1828.1828,0,0,0-.0117-.0566.188.188,0,0,1-.0117-.0459.28.28,0,0,1,.0234-.1064.3081.3081,0,0,0,.0225-.0723A.0408.0408,0,0,0,93.7417,57.5062Z"/><path class="cls-1" d="M96.2456,59.1654h-.0234l-.0381.3349v.32l.0234.0566-.0234.24.0381.1944-.0381.0947.0234.0918a.9581.9581,0,0,0-.0459.293.6727.6727,0,0,1-.0625.2949.4218.4218,0,0,0-.0635.1543.5307.5307,0,0,1-.1787.2812l.0157.0313h-.0157c-.0654,0-.1025.039-.11.1172l-.0381-.0186a.2375.2375,0,0,0-.126.1182l-.1025.0224-.0381.042-.0381-.02-.08.05-.1328-.03-.03.0381h-.03l-.0078-.0381-.0459.0537-.0225-.0381h-.0576a.3725.3725,0,0,0-.1944-.0878l-.038-.0381a1.1265,1.1265,0,0,0-.1631-.03l-.0459-.0576-.08-.0381-.2471-.1563-.0654-.0908a.8426.8426,0,0,1-.1914-.1406.4253.4253,0,0,1-.07-.1562L93.8208,61a.2233.2233,0,0,1-.0654-.0683l-.0528-.0987-.0537-.0156-.08-.1943-.0527-.03v-.0947l.0527.0146.168.2286v.03l.0606.042a.2981.2981,0,0,1,.0761.1065l.08.038v.0879l.0918.0381c.0049.02.0547.0576.1484.11l-.0156.0224a.6183.6183,0,0,1,.1406.0459l.0381.0684.1416.0654-.0156.0449.126.0157v.0381h.06l.0567.0576.0761-.0078.0538.03a.0369.0369,0,0,1,.0263-.0078c.0156,0,.03.0156.0459.0459a.07.07,0,0,1,.03-.0078.0136.0136,0,0,1,.0156.0156l.0723.0147a1.4325,1.4325,0,0,0,.2773-.0381l-.0146-.0225a.4867.4867,0,0,1,.1181-.06h.0762l.0264-.0576.0527-.0381h.0459l.03-.1182.0879-.084h.0459a.1472.1472,0,0,1-.0156-.0644v-.03l.038.0156-.0224-.0537.0224-.0381.0235.0079c.0049-.0079.0185-.0391.042-.0958h-.0313l.0615-.163-.038-.0918.0986-.2813v-.1787l.0225-.0312-.0684-.0723a1.243,1.243,0,0,0,.0879-.2627c0-.02-.0244-.0391-.0723-.0566l.0381-.0538-.0078-.0869.03-.0918-.0459-.05a.3134.3134,0,0,1,.0732-.2011l-.0732-.1866.0459-.11-.0606-.1485.0606-.0537v-.0459l-.0459-.0791v-.0693c.02,0,.0312-.0068.0312-.0225a.0429.0429,0,0,0-.0078-.03l.0225-.1182-.0606-.2022a.2376.2376,0,0,1,.0381-.2353l-.0078-.0615.0078-.2588-.0762-.2627.0381-.125-.0381-.18.0381-.0566-.0683-.4268v-.335l.03-.0146-.0722-.1484.0185-.1036-.0342-.0224.0342-.03.0078-.0576.0537-.0147c0-.1.0225-.1484.0684-.1484.0381,0,.0566.0215.0566.0645l.0538-.0225a.0934.0934,0,0,0,.0664.1025c.0449.0127.0664.0284.0664.0459v.0684l-.0381-.0078v.0605l-.0069.1182.0069.1338-.0069.0449.03.0957-.05.1787.0264.1406-.0264.2325.0264.32-.0264.1709.0723.0605a.3451.3451,0,0,0-.0723.1563l.0645.4687v.0947l-.045.3125a.2585.2585,0,0,1,.0684.1485l-.0156.3115Z"/><path class="cls-1" d="M100.3745,58.4427a.29.29,0,0,1,.0576.1289.3413.3413,0,0,1-.07.13.7629.7629,0,0,0-.1084.209l-.0576.0078-.084.1641-.0947.0146-.21.1406-.0381.084-.0644-.0078-.0684.08h-.11l-.0225.0381-.0537-.0078a.191.191,0,0,0-.1484.0761l-.05-.038a.3184.3184,0,0,1-.1289.038.2362.2362,0,0,1-.1407-.038.499.499,0,0,1-.1035.0078l-.0449-.0381a.3428.3428,0,0,1-.2822-.1182v-.0947l-.126-.0684-.03-.08a.3016.3016,0,0,0-.084-.0987v-.0615l-.0869-.3691.0147-.2627L98.27,58.13v-.164l.041-.1407-.0146-.1025a.1482.1482,0,0,0,.0527-.0859.52.52,0,0,1,.0459-.1163c-.01-.0449-.02-.11-.03-.1933l.0684-.0576-.0684-.0762a.3517.3517,0,0,0,.0538-.11l-.0381-.2324a.5735.5735,0,0,1,.0224-.1631.1278.1278,0,0,0,.1026.0684.8147.8147,0,0,0,.1484-.03.1787.1787,0,0,1-.0068-.0537.1149.1149,0,0,1,.06-.0947,1.4583,1.4583,0,0,1,.1709-.3584.1864.1864,0,0,0,.0723-.1563h.0381l.0381-.0761.0459-.0186a.2976.2976,0,0,1,.08-.1142.5023.5023,0,0,0,.209-.1788.1815.1815,0,0,0,.0654.0079c.0069,0,.0274-.0293.0606-.0879.0889-.03.1357-.0459.1406-.0459a.0911.0911,0,0,1,.0684.0459l.0722-.0157.0381.0313h.0459a.1584.1584,0,0,0,.1563.125h.0224a.1251.1251,0,0,0,.05.08l-.0341.0156c.0888.043.1328.1426.1328.3008l-.0225.0869.0225.2168-.0381.0351-.0869.2315-.1563.1943-.0078.11a2.3426,2.3426,0,0,1-.457.3125c-.01.03-.0264.0459-.0488.0459a.2838.2838,0,0,1-.0616-.0157l-.1709.1182H99.05l-.1484.0684-.0655-.0381a.5908.5908,0,0,0-.1592-.03.3715.3715,0,0,0-.1181.2852l-.0537.0644a.82.82,0,0,1-.0381.2022l-.042.0224.042.2823-.042.038.0078.0879-.0078.1065a1.4573,1.4573,0,0,0,.02.1445c.0127.0781.0332.124.0606.1367-.0127.0362.0127.0791.0742.13a.5606.5606,0,0,0,.2.1065v.0459l.2021.03.2891.0147.1943-.0225a.8637.8637,0,0,1,.1709-.1025l.0606-.0918h.0722l.0079-.0381a.6392.6392,0,0,0,.1845-.0781.0634.0634,0,0,0,.0176-.04.0723.0723,0,0,1,.0684-.0449l.0224-.05a.2532.2532,0,0,0,.2139-.2246A.14.14,0,0,1,100.3745,58.4427Zm-.64-1.7783c.02-.002.0547-.0342.1035-.0947l.0224-.0918a1.571,1.571,0,0,0,.11-.2031.3434.3434,0,0,0,.0156-.1084.9153.9153,0,0,0-.0537-.2286l-.1562-.0537a.3884.3884,0,0,1-.08.0157l-.0449-.0157a.0837.0837,0,0,0-.08.0684.6368.6368,0,0,0-.21.0576l-.0224.0527a.07.07,0,0,0-.03-.0068.053.053,0,0,0-.0215.0039.0445.0445,0,0,0-.0166.0108.1376.1376,0,0,0-.0156.0175.0718.0718,0,0,0-.0127.0244l-.0117.0323-.0118.0342a.2816.2816,0,0,1-.0478.0673l-.0567.0684-.11.209-.0576.05a.1755.1755,0,0,0-.041.0986,1.6665,1.6665,0,0,1-.2061.3652l.0537.0313.0264.0645.1289.038a.6517.6517,0,0,1,.2363-.1025l.0235-.0459a.2045.2045,0,0,0,.0605.0146.0925.0925,0,0,0,.0723-.0449l.0918-.0156.0566-.0947h.0537l.0381-.084a.2671.2671,0,0,0,.1934-.0957Z"/><path class="cls-1" d="M106.1138,58.6292l-.041.084a.4416.4416,0,0,1-.0616.2588c-.0634.0528-.0947.0947-.0947.125-.0156.0362-.0381.083-.0684.1406l-.0693.0577a.2479.2479,0,0,0-.0644.1064l-.2549.1367a1.292,1.292,0,0,1-.2744.05l-.1182-.0566h-.0908l-.08-.0615-.084-.0078-.2812-.1485-.625-.5664-.1553-.2441-.126-.11a.8557.8557,0,0,0-.1221-.1709.9105.9105,0,0,1-.1484-.1738.4535.4535,0,0,0-.2129-.169l-.1484-.2968c.0019-.0254.0215-.1055.0566-.24l.1485.1026.0839.0918a1.9694,1.9694,0,0,0,.2364.164h.0986l.042.0381a.2615.2615,0,0,1,.0762-.0078.2018.2018,0,0,1,.0879.0225.6194.6194,0,0,1,.2187-.0928,1.7262,1.7262,0,0,0,.2148-.0635l.0381-.0762h.1748a.0739.0739,0,0,1,.0459-.0546l.0459-.0215h.0225c.0791,0,.1338-.0625.1641-.1895a1.1545,1.1545,0,0,0,.1406-.08l.05-.05a.7834.7834,0,0,0,.1064-.1709h.0157q.076,0,.1552-.29h.0381l.0156-.0566-.0156-.13.0156-.1328c0-.0586-.0752-.1231-.2246-.1944a.1093.1093,0,0,0-.1025-.0722h-.0234l-.045-.0381c-.1093-.0078-.2216-.02-.3369-.0362s-.1845-.0244-.208-.0244a.603.603,0,0,0-.3115.1143.9527.9527,0,0,0-.2061.0225l.0118.0156a.534.534,0,0,0-.0879.0224.6764.6764,0,0,0-.0821.0362c-.0263.0136-.0566.0322-.0908.0537a.4667.4667,0,0,1-.0937.0469l-.0987.038-.2744.2247-.2734.2968v.0537l-.13.2588-.0645.1709a.6958.6958,0,0,0-.1259.32.1752.1752,0,0,0,.0341.0987c0,.0459-.0136.0752-.0419.0879a.2814.2814,0,0,0-.0528.163l.0078.0694a.3068.3068,0,0,1-.0234.1172.5291.5291,0,0,0-.0879.1338l.0352.1406-.0352.164.0195.1182a.4952.4952,0,0,0-.0576.2393v.0459a.246.246,0,0,1,.0156.0566c0,.0615-.0468.1045-.1406.13-.0459-.0127-.0791-.0625-.1-.1484l-.03-.0987.0235-.1338-.0235-.3047.0235-.0683v-.2969l.0068-.1025V57.974c0-.1367.0059-.2569.0156-.3614s.0157-.1572.0157-.16v-.125l.0146-.0723v-.2178l.0234-.083-.0234-.11.0234-.2666v-.32l-.0234-.1065.0381-.0722-.0147-.084-.0234-.4453-.0527-.2588V55.23l.0381-.29-.0313-.125-.0068-.1943a1.1383,1.1383,0,0,1-.0157-.1485c0-.1045.06-.1562.1788-.1562l.0234.0576.0449-.0274-.0146.126.0381.2207-.0538.2324.0157.3047.0381.125-.0235.1221.0156.2129-.03.1641.0381.1562-.0235.0527.0381.11-.0225.1943-.03.5528a.9953.9953,0,0,1,.0146.1171l-.0146.11.0146.1484a.3376.3376,0,0,1-.03.1485.3107.3107,0,0,0,.11.0761l.0918-.1933-.0078-.0381a2.0825,2.0825,0,0,1,.15-.3828,2.2081,2.2081,0,0,1,.3252-.5391c.0361-.0078.0537-.02.0537-.0381a.0558.0558,0,0,0-.0156-.0341,1.4436,1.4436,0,0,0,.2177-.1426.558.558,0,0,1,.0567-.0537.4479.4479,0,0,1,.0644-.041.2283.2283,0,0,1,.0654-.0274.1174.1174,0,0,0,.0528-.0283.494.494,0,0,1,.0781-.0518,1.1335,1.1335,0,0,1,.1621-.0664.4721.4721,0,0,1,.3194-.125l.3007-.0381.5479.0381.084.0489a.4277.4277,0,0,0,.1338.038,3.2585,3.2585,0,0,0,.3037.2784.1067.1067,0,0,0-.0225-.0459l.11.2509-.0186.0616a.1916.1916,0,0,1,.0566.125.3271.3271,0,0,1-.0878.1718v.0684l-.0831.2666-.1181.1709-.0537.0078a.23.23,0,0,1-.0625.0986.2441.2441,0,0,0-.0625.0957.204.204,0,0,0-.1563.087.12.12,0,0,0-.0879.0839.3.3,0,0,0-.1787.1182.0312.0312,0,0,0,.0225-.0078h.0117a3.9652,3.9652,0,0,1-.7275.2666.2839.2839,0,0,0-.1172-.042q-.0615,0-.0615.0879v.0146l-.0079.0381.0616.0733.0263.1133a.2.2,0,0,0,.13.1337l.1328.2666.2022.125.0068.0381.0879.0459.03.08.0459-.0078.2363.2324.2891.1182.1787.0527.1484-.0146.0684-.03a.6634.6634,0,0,0,.2363-.0957.826.826,0,0,0,.1221-.084l.1406-.2656.0576-.0733a.5516.5516,0,0,0,.0684-.1513.2287.2287,0,0,1,.0605-.0157A.0765.0765,0,0,1,106.1138,58.6292Z"/><path class="cls-1" d="M109.9312,57.9017l-.1211.1338a.5554.5554,0,0,1-.0157.1064.2884.2884,0,0,1-.0263.084.39.39,0,0,1-.0577.0723.7377.7377,0,0,0-.0761.1328.9906.9906,0,0,1-.0908.1445.8174.8174,0,0,1-.1065.1221,1.1356,1.1356,0,0,1-.1338.0986.8489.8489,0,0,0-.19.1377l-.0645.0108a.57.57,0,0,0-.1445.0957l-.0879.0078-.1787.1328-.0605-.0381-.1641.0762-.1563-.0381-.0459.0566-.0947-.0185-.0918.0185-.0263-.0263-.1065-.0186a.2329.2329,0,0,1-.11-.05l-.126-.1025-.1143-.1719a.3006.3006,0,0,1-.08-.209v-.03l-.083-.1337v-.1182l-.0341-.0449.0146-.1563-.03-.126.05-.121-.0341-.0577.0791-.1259-.0225-.1631.0195-.0684a.301.301,0,0,1,.0723-.1562l.0068-.1787.0577-.0459-.0225-.05.0527-.0761a2.7153,2.7153,0,0,1,.1641-.4912l.1328-.1328.0381-.0958.06-.1064a.4288.4288,0,0,1,.08-.1709.24.24,0,0,0,.1563-.0644c-.0049-.087.0722-.13.2324-.13a.6426.6426,0,0,1,.1484.0381.22.22,0,0,1,.1485.1259c.0791,0,.1181.0274.1181.083l.2246.0079.0078.0722.045.0537-.0069.0908.0567.0723-.0078.1.0156.0567-.0156.1562.038.0537v.08l.0235.1631-.1563.084-.164-.1944-.0147-.2509-.0312-.0918v-.0948l-.0908-.11a.7472.7472,0,0,0-.1749-.1377l-.1074.0459h-.0947a.3776.3776,0,0,0-.166.0654.7054.7054,0,0,0-.1768.2256.6643.6643,0,0,1-.1631.2158l-.0078.11-.0654.0527v.1563l-.0752.1025-.0312.1074a.7543.7543,0,0,0-.0625.1826c-.0137.0655-.0274.1016-.04.1065l.0078.125-.0683.164.0146.1182-.03.0078-.0078.2969-.0146.0078.0146.0684-.0342.03.1143.1329a.39.39,0,0,1,.042.1259l-.0225.0225.08.11.0606.0235.0078.0762.415.0947a.1439.1439,0,0,1,.0986-.0567.35.35,0,0,1,.08.0186.2067.2067,0,0,1,.1065-.0488l.0566.0068a.3682.3682,0,0,0,.0537-.0322.3008.3008,0,0,1,.1485-.0362c.0429-.0888.0976-.1328.164-.1328a.1772.1772,0,0,1,.0606.0078c.1318-.0566.1982-.1054.1982-.1484a.1628.1628,0,0,1,.1631-.084h.0312q.3194-.3544.3038-.3847a.47.47,0,0,0,.1337-.2168l.0684-.0459.0078-.1026C109.9136,57.72,109.9312,57.79,109.9312,57.9017Z"/><path class="cls-1" d="M113.4409,58.4427a.29.29,0,0,1,.0576.1289.3413.3413,0,0,1-.07.13.7629.7629,0,0,0-.1084.209l-.0576.0078-.084.1641-.0947.0146-.21.1406-.0381.084-.0644-.0078-.0684.08h-.11l-.0225.0381-.0537-.0078a.191.191,0,0,0-.1484.0761l-.05-.038a.3184.3184,0,0,1-.1289.038.2362.2362,0,0,1-.1407-.038.499.499,0,0,1-.1035.0078L111.9,59.432a.343.343,0,0,1-.2822-.1182v-.0947l-.126-.0684-.03-.08a.3016.3016,0,0,0-.084-.0987v-.0615l-.0869-.3691.0147-.2627.0312-.1485v-.164l.041-.1407-.0146-.1025a.1482.1482,0,0,0,.0527-.0859.52.52,0,0,1,.0459-.1163c-.01-.0449-.02-.11-.03-.1933L111.5,57.27l-.0683-.0762a.3529.3529,0,0,0,.0537-.11l-.0381-.2324a.5735.5735,0,0,1,.0224-.1631.1278.1278,0,0,0,.1026.0684.8147.8147,0,0,0,.1484-.03.1787.1787,0,0,1-.0068-.0537.1149.1149,0,0,1,.0605-.0947,1.4583,1.4583,0,0,1,.1709-.3584.1862.1862,0,0,0,.0723-.1563h.0381l.0381-.0761.0459-.0186a.2976.2976,0,0,1,.08-.1142.5023.5023,0,0,0,.209-.1788.1818.1818,0,0,0,.0655.0079c.0068,0,.0273-.0293.06-.0879.0889-.03.1357-.0459.1406-.0459a.0911.0911,0,0,1,.0684.0459l.0722-.0157.0381.0313h.0459a.1585.1585,0,0,0,.1563.125h.0224a.1251.1251,0,0,0,.05.08l-.0341.0156c.0888.043.1328.1426.1328.3008l-.0225.0869.0225.2168-.0381.0351-.0869.2315-.1563.1943-.0078.11a2.3426,2.3426,0,0,1-.457.3125c-.01.03-.0264.0459-.0488.0459a.2838.2838,0,0,1-.0616-.0157l-.1709.1182h-.1025l-.1484.0684-.0655-.0381a.59.59,0,0,0-.1591-.03.3716.3716,0,0,0-.1182.2852l-.0537.0644a.82.82,0,0,1-.0381.2022l-.042.0224.042.2823-.042.038.0078.0879-.0078.1065a1.4573,1.4573,0,0,0,.02.1445c.0127.0781.0332.124.0606.1367-.0127.0362.0127.0791.0742.13a.5606.5606,0,0,0,.2.1065v.0459l.2021.03.2891.0147.1943-.0225a.8637.8637,0,0,1,.1709-.1025l.0606-.0918h.0722l.0079-.0381a.6392.6392,0,0,0,.1845-.0781.0629.0629,0,0,0,.0176-.04.0723.0723,0,0,1,.0684-.0449l.0224-.05a.2532.2532,0,0,0,.2139-.2246A.14.14,0,0,1,113.4409,58.4427Zm-.64-1.7783c.02-.002.0547-.0342.1035-.0947l.0224-.0918a1.571,1.571,0,0,0,.11-.2031.3434.3434,0,0,0,.0156-.1084A.9153.9153,0,0,0,113,55.9378l-.1562-.0537a.3884.3884,0,0,1-.08.0157l-.0449-.0157a.0837.0837,0,0,0-.08.0684.6368.6368,0,0,0-.21.0576l-.0224.0527a.07.07,0,0,0-.03-.0068.053.053,0,0,0-.0215.0039.0445.0445,0,0,0-.0166.0108.1376.1376,0,0,0-.0156.0175.0718.0718,0,0,0-.0127.0244l-.0117.0323-.0118.0342a.2816.2816,0,0,1-.0478.0673l-.0566.0684-.11.209-.0576.05a.1755.1755,0,0,0-.041.0986,1.6665,1.6665,0,0,1-.2061.3652l.0537.0313.0264.0645.1289.038a.6517.6517,0,0,1,.2363-.1025l.0235-.0459a.2045.2045,0,0,0,.0605.0146.0925.0925,0,0,0,.0723-.0449l.0918-.0156.0566-.0947h.0537l.0381-.084a.2671.2671,0,0,0,.1934-.0957Z"/><path class="cls-1" d="M96.425,54.7828a.3872.3872,0,0,1-.1815.1768v.0678l-.0931.1037c-.0312.0412-.2951-.2539-.2951-.2539.0272,0,.0478-.0213.0618-.0625H95.98l.01-.109a.355.355,0,0,0,.13-.2127A.4165.4165,0,0,1,96.425,54.7828Z"/><path class="cls-1" d="M41.6519,59.7269c-.1138-.1143-.2217-.2275-.378-.3955a1.658,1.658,0,0,1-1.1811.4619A1.1436,1.1436,0,0,1,38.8516,58.66a1.3277,1.3277,0,0,1,.7915-1.1816V57.46a1.3877,1.3877,0,0,1-.336-.8457.98.98,0,0,1,1.0254-.9951.8409.8409,0,0,1,.8936.8574c0,.4258-.2456.7617-.8877,1.0791v.0186c.3418.3955.7256.8388.9839,1.1269a2.9757,2.9757,0,0,0,.39-1.1816h.48A3.0718,3.0718,0,0,1,41.61,59.013c.2158.2286.4257.4561.6655.7139Zm-.6358-.6953c-.24-.2647-.6894-.7559-1.1391-1.2715a.9927.9927,0,0,0-.522.8213.7971.7971,0,0,0,.8276.8154A1.1285,1.1285,0,0,0,41.0161,59.0316Zm-1.229-2.4649a1.1326,1.1326,0,0,0,.3057.7256c.4077-.2343.6714-.45.6714-.792a.4759.4759,0,0,0-.4678-.5214A.5264.5264,0,0,0,39.7871,56.5667Z"/><path class="cls-1" d="M79.1333,59.7269c-.1133-.1143-.2217-.2275-.3779-.3955a1.6579,1.6579,0,0,1-1.1807.4619A1.1433,1.1433,0,0,1,76.3335,58.66a1.3272,1.3272,0,0,1,.791-1.1816V57.46a1.3881,1.3881,0,0,1-.3359-.8457A.98.98,0,0,1,77.814,55.62a.8409.8409,0,0,1,.8935.8574c0,.4258-.2451.7617-.8877,1.0791v.0186c.3418.3955.7256.8388.9844,1.1269a2.9757,2.9757,0,0,0,.39-1.1816h.48a3.0768,3.0768,0,0,1-.582,1.4931c.2158.2286.4258.4561.666.7139Zm-.6357-.6953c-.2393-.2647-.69-.7559-1.1387-1.2715a.9933.9933,0,0,0-.5225.8213.7972.7972,0,0,0,.8282.8154A1.1267,1.1267,0,0,0,78.4976,59.0316ZM77.269,56.5667a1.1331,1.1331,0,0,0,.3057.7256c.4072-.2343.6709-.45.6709-.792a.4759.4759,0,0,0-.4678-.5214A.5264.5264,0,0,0,77.269,56.5667Z"/></g><g id="Vrstva_4" data-name="Vrstva 4"><path class="cls-2" d="M16.9325,2.7557l-1.909,2.1954A7.1576,7.1576,0,0,0,10.012,3.0655c-1.6227,0-2.911.6688-2.911,1.9811,0,1.2643.8591,1.98,3.4123,2.3148,4.1284.5487,6.5147,2.1,6.5147,4.9635,0,3.6746-2.9356,5.4881-6.8251,5.4881a9.206,9.206,0,0,1-7.0394-2.6966l1.8376-2.2188a7.4809,7.4809,0,0,0,5.3453,2.1233c1.861,0,3.2693-.6681,3.2693-2.2668,0-1.2649-1.0265-1.9565-3.7232-2.3623-3.1733-.5012-6.18-1.7181-6.18-4.9874C3.7122,2.207,6.3849.25,10.0835.25A9.2474,9.2474,0,0,1,16.9325,2.7557Z"/><path class="cls-2" d="M29.0805,17.4312H25.7878V3.5668H20.323V.68H34.5693v2.887H29.0805Z"/><path class="cls-2" d="M40.8462.68h4.2l6.1089,16.7514H47.6707l-1.4552-4.2H39.6293l-1.4317,4.2h-3.46ZM40.56,10.5587h4.7486L42.97,3.7343h-.024Z"/><path class="cls-2" d="M62.8983,17.4312H58.6744L52.589.68h3.5317l4.6765,13.4346L65.4989.68h3.5083Z"/><path class="cls-2" d="M86.3324,12.8736c0,3.1259-2.4817,4.5576-5.2252,4.5576H72.4686V.68H80.82c3.3882,0,5.1063,1.7181,5.1063,4.009,0,2.0039-1.24,3.818-4.1758,3.9369C84.9721,8.7452,86.3324,10.6542,86.3324,12.8736ZM82.5864,5.38c0-1.17-.7636-2.0045-2.3629-2.0045H75.7379V7.48h4.4856A2.1744,2.1744,0,0,0,82.5864,5.38Zm.3338,7.0159a2.4311,2.4311,0,0,0-2.53-2.53H75.7379v4.94H80.39A2.3773,2.3773,0,0,0,82.92,12.3963Z"/><path class="cls-2" d="M98.8863,17.4312H95.6181V10.32L88.9833.68h3.8661l4.4628,6.5856L101.7978.68h3.7712l-6.6827,9.64Z"/><path class="cls-2" d="M22.739,25.8555V36.9867H29.46v2.2726H20.123V25.8555Z"/><path class="cls-2" d="M38.1324,39.5645c-3.0167,0-5.6139-1.6233-5.6139-5.5556V25.8555h2.616v8.1339c0,2.4818,1.3558,3.17,3.0168,3.17s3.0167-.6881,3.0167-3.17V25.8555h2.5972v8.1534C43.7652,37.9412,41.1491,39.5645,38.1324,39.5645Z"/><path class="cls-2" d="M50.6434,39.2593H48.0656V25.8555H51.35l5.4419,9.3182V25.8555h2.5972V39.2593H56.467l-5.8236-9.89Zm3.38-15.4088,1.47-1.5656h2.0816l-2.6543,2.73H53.1445l-2.6726-2.73H52.63Z"/><path class="cls-2" d="M67.05,25.8555h3.3608l4.888,13.4038h-2.788L71.346,35.8985h-5.27l-1.1454,3.3608H62.1621Zm-.2286,7.9053H70.62L68.75,28.3h-.0195Zm.1326-8.7455,3.0179-2.73h2.31l-3.4,2.73Z"/><path class="cls-2" d="M80.6865,39.2593H78.071V25.8555h2.6155v6.7976l5.3076-6.7976h3.075l-4.7166,5.9763,5.4036,7.4275H86.4524l-3.8946-5.3842-1.8713,2.2714Z"/></g></g></svg>