<?xml version="1.0" encoding="UTF-8" standalone="no"?>
<!-- Generator: Adobe Illustrator 18.1.1, SVG Export Plug-In . SVG Version: 6.00 Build 0)  -->

<svg
   xmlns:dc="http://purl.org/dc/elements/1.1/"
   xmlns:cc="http://creativecommons.org/ns#"
   xmlns:rdf="http://www.w3.org/1999/02/22-rdf-syntax-ns#"
   xmlns:svg="http://www.w3.org/2000/svg"
   xmlns="http://www.w3.org/2000/svg"
   xmlns:sodipodi="http://sodipodi.sourceforge.net/DTD/sodipodi-0.dtd"
   xmlns:inkscape="http://www.inkscape.org/namespaces/inkscape"
   version="1.1"
   id="Capa_1"
   x="0px"
   y="0px"
   viewBox="0 0 25.625 25.625"
   style="enable-background:new 0 0 25.625 25.625;"
   xml:space="preserve"
   sodipodi:docname="phone.svg"
   inkscape:version="0.92.3 (2405546, 2018-03-11)"><metadata
   id="metadata4598"><rdf:RDF><cc:Work
       rdf:about=""><dc:format>image/svg+xml</dc:format><dc:type
         rdf:resource="http://purl.org/dc/dcmitype/StillImage" /></cc:Work></rdf:RDF></metadata><defs
   id="defs4596" /><sodipodi:namedview
   pagecolor="#ffffff"
   bordercolor="#666666"
   borderopacity="1"
   objecttolerance="10"
   gridtolerance="10"
   guidetolerance="10"
   inkscape:pageopacity="0"
   inkscape:pageshadow="2"
   inkscape:window-width="1920"
   inkscape:window-height="1028"
   id="namedview4594"
   showgrid="false"
   inkscape:zoom="33.6"
   inkscape:cx="11.10119"
   inkscape:cy="12.8125"
   inkscape:window-x="-8"
   inkscape:window-y="-8"
   inkscape:window-maximized="1"
   inkscape:current-layer="Capa_1" />
<g
   id="g4561"
   style="fill:#ffffff">
	<path
   style="fill:#ffffff"
   d="M22.079,17.835c-1.548-1.324-3.119-2.126-4.648-0.804l-0.913,0.799   c-0.668,0.58-1.91,3.29-6.712-2.234C5.005,10.079,7.862,9.22,8.531,8.645l0.918-0.8c1.521-1.325,0.947-2.993-0.15-4.71l-0.662-1.04   C7.535,0.382,6.335-0.743,4.81,0.58L3.986,1.3C3.312,1.791,1.428,3.387,0.971,6.419c-0.55,3.638,1.185,7.804,5.16,12.375   c3.97,4.573,7.857,6.87,11.539,6.83c3.06-0.033,4.908-1.675,5.486-2.272l0.827-0.721c1.521-1.322,0.576-2.668-0.973-3.995   L22.079,17.835z"
   id="path4559" />
</g>
<g
   id="g4563">
</g>
<g
   id="g4565">
</g>
<g
   id="g4567">
</g>
<g
   id="g4569">
</g>
<g
   id="g4571">
</g>
<g
   id="g4573">
</g>
<g
   id="g4575">
</g>
<g
   id="g4577">
</g>
<g
   id="g4579">
</g>
<g
   id="g4581">
</g>
<g
   id="g4583">
</g>
<g
   id="g4585">
</g>
<g
   id="g4587">
</g>
<g
   id="g4589">
</g>
<g
   id="g4591">
</g>
</svg>