<?xml version="1.0" encoding="UTF-8" standalone="no"?>
<!-- Generator: Adobe Illustrator 19.0.0, SVG Export Plug-In . SVG Version: 6.00 Build 0)  -->

<svg
   xmlns:dc="http://purl.org/dc/elements/1.1/"
   xmlns:cc="http://creativecommons.org/ns#"
   xmlns:rdf="http://www.w3.org/1999/02/22-rdf-syntax-ns#"
   xmlns:svg="http://www.w3.org/2000/svg"
   xmlns="http://www.w3.org/2000/svg"
   xmlns:sodipodi="http://sodipodi.sourceforge.net/DTD/sodipodi-0.dtd"
   xmlns:inkscape="http://www.inkscape.org/namespaces/inkscape"
   version="1.1"
   id="Capa_1"
   x="0px"
   y="0px"
   viewBox="0 0 487.724 487.724"
   style="enable-background:new 0 0 487.724 487.724;"
   xml:space="preserve"
   sodipodi:docname="pin.svg"
   inkscape:version="0.92.3 (2405546, 2018-03-11)"><metadata
   id="metadata13366"><rdf:RDF><cc:Work
       rdf:about=""><dc:format>image/svg+xml</dc:format><dc:type
         rdf:resource="http://purl.org/dc/dcmitype/StillImage" /></cc:Work></rdf:RDF></metadata><defs
   id="defs13364" /><sodipodi:namedview
   pagecolor="#ffffff"
   bordercolor="#666666"
   borderopacity="1"
   objecttolerance="10"
   gridtolerance="10"
   guidetolerance="10"
   inkscape:pageopacity="0"
   inkscape:pageshadow="2"
   inkscape:window-width="1920"
   inkscape:window-height="1028"
   id="namedview13362"
   showgrid="false"
   inkscape:zoom="0.48388023"
   inkscape:cx="125.03094"
   inkscape:cy="243.862"
   inkscape:window-x="-8"
   inkscape:window-y="-8"
   inkscape:window-maximized="1"
   inkscape:current-layer="Capa_1" />
<g
   id="g13329"
   style="fill:#888888;fill-opacity:1">
	<g
   id="g13327"
   style="fill:#888888;fill-opacity:1">
		<path
   d="M236.925,0.124c-96.9,3.4-177.4,79-186.7,175.5c-1.9,19.3-0.8,38,2.6,55.9l0,0c0,0,0.3,2.1,1.3,6.1    c3,13.4,7.5,26.4,13.1,38.6c19.5,46.2,64.6,123.5,165.8,207.6c6.2,5.2,15.3,5.2,21.6,0c101.2-84,146.3-161.3,165.9-207.7    c5.7-12.2,10.1-25.1,13.1-38.6c0.9-3.9,1.3-6.1,1.3-6.1l0,0c2.3-12,3.5-24.3,3.5-36.9C438.425,84.724,347.525-3.776,236.925,0.124    z M243.825,291.324c-52.2,0-94.5-42.3-94.5-94.5s42.3-94.5,94.5-94.5s94.5,42.3,94.5,94.5S296.025,291.324,243.825,291.324z"
   id="path13325"
   style="fill:#888888;fill-opacity:1" />
	</g>
</g>
<g
   id="g13331">
</g>
<g
   id="g13333">
</g>
<g
   id="g13335">
</g>
<g
   id="g13337">
</g>
<g
   id="g13339">
</g>
<g
   id="g13341">
</g>
<g
   id="g13343">
</g>
<g
   id="g13345">
</g>
<g
   id="g13347">
</g>
<g
   id="g13349">
</g>
<g
   id="g13351">
</g>
<g
   id="g13353">
</g>
<g
   id="g13355">
</g>
<g
   id="g13357">
</g>
<g
   id="g13359">
</g>
</svg>