<?xml version="1.0" encoding="UTF-8" standalone="no"?>
<!-- Generator: Adobe Illustrator 19.0.0, SVG Export Plug-In . SVG Version: 6.00 Build 0)  -->

<svg
   xmlns:dc="http://purl.org/dc/elements/1.1/"
   xmlns:cc="http://creativecommons.org/ns#"
   xmlns:rdf="http://www.w3.org/1999/02/22-rdf-syntax-ns#"
   xmlns:svg="http://www.w3.org/2000/svg"
   xmlns="http://www.w3.org/2000/svg"
   xmlns:sodipodi="http://sodipodi.sourceforge.net/DTD/sodipodi-0.dtd"
   xmlns:inkscape="http://www.inkscape.org/namespaces/inkscape"
   version="1.1"
   id="Layer_1"
   x="0px"
   y="0px"
   viewBox="0 0 511.999 511.999"
   style="enable-background:new 0 0 511.999 511.999;"
   xml:space="preserve"
   sodipodi:docname="plan.svg"
   inkscape:version="0.92.3 (2405546, 2018-03-11)"><metadata
   id="metadata6595"><rdf:RDF><cc:Work
       rdf:about=""><dc:format>image/svg+xml</dc:format><dc:type
         rdf:resource="http://purl.org/dc/dcmitype/StillImage" /></cc:Work></rdf:RDF></metadata><defs
   id="defs6593" /><sodipodi:namedview
   pagecolor="#ffffff"
   bordercolor="#666666"
   borderopacity="1"
   objecttolerance="10"
   gridtolerance="10"
   guidetolerance="10"
   inkscape:pageopacity="0"
   inkscape:pageshadow="2"
   inkscape:window-width="1920"
   inkscape:window-height="1028"
   id="namedview6591"
   showgrid="false"
   inkscape:zoom="0.46093841"
   inkscape:cx="131.25398"
   inkscape:cy="255.9995"
   inkscape:window-x="-8"
   inkscape:window-y="-8"
   inkscape:window-maximized="1"
   inkscape:current-layer="Layer_1" />
<g
   id="g6552"
   style="fill:#27a4dd;fill-opacity:1">
	<g
   id="g6550"
   style="fill:#27a4dd;fill-opacity:1">
		<path
   d="M395.128,66.782H116.869c-9.22,0-16.695,7.475-16.695,16.695v200.346c0,9.22,7.475,16.695,16.695,16.695h278.258    c9.22,0,16.695-7.475,16.695-16.695V83.478C411.823,74.257,404.348,66.782,395.128,66.782z M205.912,267.128h-72.347V100.173    h72.347V267.128z M378.432,267.128H239.303v-66.782h139.129V267.128z M378.432,166.955H239.303v-66.782h139.129V166.955z"
   id="path6548"
   style="fill:#27a4dd;fill-opacity:1" />
	</g>
</g>
<g
   id="g6558"
   style="fill:#27a4dd;fill-opacity:1">
	<g
   id="g6556"
   style="fill:#27a4dd;fill-opacity:1">
		<path
   d="M495.303,333.91h-16.695V33.391h16.693c9.22,0,16.695-7.475,16.695-16.696c0-9.22-7.475-16.695-16.695-16.695    C485.127,0,32.05,0,16.696,0C7.476,0,0.001,7.475,0.001,16.695c0,9.22,7.475,16.696,16.695,16.696h16.695V333.91H16.696    c-9.22,0-16.695,7.475-16.695,16.695c0,9.22,7.475,16.695,16.695,16.695c8.861,0,210.517,0,222.607,0v82.574l-88.757,29.586    c-8.747,2.916-13.475,12.371-10.559,21.119c2.919,8.756,12.38,13.472,21.119,10.559L256,479.507l94.894,31.631    c8.745,2.914,18.201-1.81,21.119-10.559c2.916-8.747-1.812-18.203-10.559-21.119l-88.757-29.586v-82.574    c12.104,0,213.747,0,222.607,0c9.22,0,16.696-7.475,16.696-16.695C511.999,341.385,504.523,333.91,495.303,333.91z     M445.214,333.91H66.783V33.391h378.431V333.91z"
   id="path6554"
   style="fill:#27a4dd;fill-opacity:1" />
	</g>
</g>
<g
   id="g6560">
</g>
<g
   id="g6562">
</g>
<g
   id="g6564">
</g>
<g
   id="g6566">
</g>
<g
   id="g6568">
</g>
<g
   id="g6570">
</g>
<g
   id="g6572">
</g>
<g
   id="g6574">
</g>
<g
   id="g6576">
</g>
<g
   id="g6578">
</g>
<g
   id="g6580">
</g>
<g
   id="g6582">
</g>
<g
   id="g6584">
</g>
<g
   id="g6586">
</g>
<g
   id="g6588">
</g>
</svg>