<?xml version="1.0" encoding="UTF-8" standalone="no"?>
<!-- Generator: Adobe Illustrator 19.0.0, SVG Export Plug-In . SVG Version: 6.00 Build 0)  -->

<svg
   xmlns:dc="http://purl.org/dc/elements/1.1/"
   xmlns:cc="http://creativecommons.org/ns#"
   xmlns:rdf="http://www.w3.org/1999/02/22-rdf-syntax-ns#"
   xmlns:svg="http://www.w3.org/2000/svg"
   xmlns="http://www.w3.org/2000/svg"
   xmlns:sodipodi="http://sodipodi.sourceforge.net/DTD/sodipodi-0.dtd"
   xmlns:inkscape="http://www.inkscape.org/namespaces/inkscape"
   version="1.1"
   id="Layer_1"
   x="0px"
   y="0px"
   viewBox="0 0 512 512"
   style="enable-background:new 0 0 512 512;"
   xml:space="preserve"
   sodipodi:docname="search.svg"
   inkscape:version="0.92.3 (2405546, 2018-03-11)"><metadata
   id="metadata10744"><rdf:RDF><cc:Work
       rdf:about=""><dc:format>image/svg+xml</dc:format><dc:type
         rdf:resource="http://purl.org/dc/dcmitype/StillImage" /></cc:Work></rdf:RDF></metadata><defs
   id="defs10742" /><sodipodi:namedview
   pagecolor="#ffffff"
   bordercolor="#666666"
   borderopacity="1"
   objecttolerance="10"
   gridtolerance="10"
   guidetolerance="10"
   inkscape:pageopacity="0"
   inkscape:pageshadow="2"
   inkscape:window-width="1920"
   inkscape:window-height="1028"
   id="namedview10740"
   showgrid="false"
   inkscape:zoom="0.4609375"
   inkscape:cx="131.25424"
   inkscape:cy="256"
   inkscape:window-x="-8"
   inkscape:window-y="-8"
   inkscape:window-maximized="1"
   inkscape:current-layer="Layer_1" />
<g
   id="g10701"
   style="fill:#27a4dd;fill-opacity:1">
	<g
   id="g10699"
   style="fill:#27a4dd;fill-opacity:1">
		<path
   d="M407.023,138.373c-0.006-0.006-0.01-0.011-0.016-0.017l-66.732-66.732c-6.515-6.516-17.079-6.516-23.594,0l-66.732,66.732    c-0.006,0.006-0.01,0.011-0.016,0.017c-3.203,3.212-4.874,7.563-4.874,11.783V250.26c0,9.214,7.47,16.684,16.684,16.684h133.471    c9.214,0,16.684-7.47,16.684-16.684V150.156C411.897,145.858,410.168,141.527,407.023,138.373z M328.477,107.015l26.456,26.457    H302.02L328.477,107.015z M378.529,233.576h-33.368v-16.684c0-9.214-7.47-16.684-16.684-16.684s-16.684,7.47-16.684,16.684v16.684    h-33.368V166.84h100.104V233.576z"
   id="path10697"
   style="fill:#27a4dd;fill-opacity:1" />
	</g>
</g>
<g
   id="g10707"
   style="fill:#27a4dd;fill-opacity:1">
	<g
   id="g10705"
   style="fill:#27a4dd;fill-opacity:1">
		<path
   d="M328.477,0.001c-101.195,0-183.523,82.329-183.523,183.523c0,44.603,16.001,85.535,42.555,117.374l-23.127,23.127    l-11.798-11.798c-6.515-6.516-17.079-6.516-23.594,0c-5.737,5.737-108.975,108.975-114.317,114.317    c-19.563,19.561-19.564,51.221,0,70.783c19.561,19.561,51.221,19.564,70.783,0c5.194-5.194,108.72-108.72,114.317-114.317    c6.516-6.516,6.516-17.079,0-23.594l-11.798-11.798l23.127-23.127c31.84,26.555,72.771,42.556,117.375,42.556    C429.672,367.047,512,284.719,512,183.524S429.672,0.001,328.477,0.001z M61.861,473.734c-6.506,6.506-17.09,6.506-23.594,0    c-6.505-6.506-6.505-17.09,0-23.594l58.067-58.067l23.594,23.594L61.861,473.734z M143.522,392.073l-23.594-23.594l20.859-20.859    l23.594,23.594L143.522,392.073z M328.477,333.68c-82.796,0-150.155-67.36-150.155-150.155s67.36-150.155,150.155-150.155    s150.155,67.36,150.155,150.155S411.273,333.68,328.477,333.68z"
   id="path10703"
   style="fill:#27a4dd;fill-opacity:1" />
	</g>
</g>
<g
   id="g10709">
</g>
<g
   id="g10711">
</g>
<g
   id="g10713">
</g>
<g
   id="g10715">
</g>
<g
   id="g10717">
</g>
<g
   id="g10719">
</g>
<g
   id="g10721">
</g>
<g
   id="g10723">
</g>
<g
   id="g10725">
</g>
<g
   id="g10727">
</g>
<g
   id="g10729">
</g>
<g
   id="g10731">
</g>
<g
   id="g10733">
</g>
<g
   id="g10735">
</g>
<g
   id="g10737">
</g>
</svg>