<?xml version="1.0" encoding="UTF-8" standalone="no"?>
<!-- Generator: Adobe Illustrator 19.0.0, SVG Export Plug-In . SVG Version: 6.00 Build 0)  -->

<svg
   xmlns:dc="http://purl.org/dc/elements/1.1/"
   xmlns:cc="http://creativecommons.org/ns#"
   xmlns:rdf="http://www.w3.org/1999/02/22-rdf-syntax-ns#"
   xmlns:svg="http://www.w3.org/2000/svg"
   xmlns="http://www.w3.org/2000/svg"
   xmlns:sodipodi="http://sodipodi.sourceforge.net/DTD/sodipodi-0.dtd"
   xmlns:inkscape="http://www.inkscape.org/namespaces/inkscape"
   version="1.1"
   id="Layer_1"
   x="0px"
   y="0px"
   viewBox="0 0 512 512"
   style="enable-background:new 0 0 512 512;"
   xml:space="preserve"
   sodipodi:docname="time.svg"
   inkscape:version="0.92.3 (2405546, 2018-03-11)"><metadata
   id="metadata11487"><rdf:RDF><cc:Work
       rdf:about=""><dc:format>image/svg+xml</dc:format><dc:type
         rdf:resource="http://purl.org/dc/dcmitype/StillImage" /></cc:Work></rdf:RDF></metadata><defs
   id="defs11485" /><sodipodi:namedview
   pagecolor="#ffffff"
   bordercolor="#666666"
   borderopacity="1"
   objecttolerance="10"
   gridtolerance="10"
   guidetolerance="10"
   inkscape:pageopacity="0"
   inkscape:pageshadow="2"
   inkscape:window-width="1920"
   inkscape:window-height="1028"
   id="namedview11483"
   showgrid="false"
   inkscape:zoom="0.4609375"
   inkscape:cx="131.25424"
   inkscape:cy="256"
   inkscape:window-x="-8"
   inkscape:window-y="-8"
   inkscape:window-maximized="1"
   inkscape:current-layer="Layer_1" />
<g
   id="g11450"
   style="fill:#27a4d3;fill-opacity:1">
	<g
   id="g11448"
   style="fill:#27a4d3;fill-opacity:1">
		<path
   d="M422.957,478.609h-16.696v-89.044c0-58.08-33.125-108.564-81.473-133.565c48.834-25.253,81.473-76.015,81.473-133.565    V33.391h16.696c9.22,0,16.696-7.475,16.696-16.696S432.177,0,422.957,0c-9.08,0-325.108,0-333.913,0    c-9.22,0-16.696,7.475-16.696,16.696s7.475,16.696,16.696,16.696h16.696v89.044c0,56.875,32.002,107.984,81.473,133.565    c-48.347,25.001-81.473,75.485-81.473,133.565v89.044H89.044c-9.22,0-16.696,7.475-16.696,16.696S79.823,512,89.044,512    c8.802,0,324.662,0,333.913,0c9.22,0,16.696-7.475,16.696-16.696S432.177,478.609,422.957,478.609z M139.13,122.435V33.391H372.87    v89.044c0,3.394-0.154,6.753-0.44,10.074H139.57C139.284,129.188,139.13,125.828,139.13,122.435z M147.518,165.9h216.964    c-17.283,42.98-59.394,73.404-108.483,73.404S164.801,208.88,147.518,165.9z M168.549,478.609    c83.423-69.518,78.245-66.023,83.322-67.318c2.798,0.713,5.454,0.715,8.257,0c5.078,1.294-0.1-2.2,83.322,67.318H168.549z     M372.87,459.658c-92.345-76.954-88.883-75.431-100.174-79.421v-18.498c0-9.22-7.475-16.696-16.696-16.696    s-16.696,7.475-16.696,16.696v18.499c-11.404,4.03-8.095,2.689-100.174,79.421v-70.094c0-58.773,43.612-107.546,100.174-115.672    v21.063c0,9.22,7.475,16.696,16.696,16.696s16.696-7.475,16.696-16.696v-21.063c56.562,8.126,100.174,56.899,100.174,115.672    V459.658z"
   id="path11446"
   style="fill:#27a4d3;fill-opacity:1" />
	</g>
</g>
<g
   id="g11452">
</g>
<g
   id="g11454">
</g>
<g
   id="g11456">
</g>
<g
   id="g11458">
</g>
<g
   id="g11460">
</g>
<g
   id="g11462">
</g>
<g
   id="g11464">
</g>
<g
   id="g11466">
</g>
<g
   id="g11468">
</g>
<g
   id="g11470">
</g>
<g
   id="g11472">
</g>
<g
   id="g11474">
</g>
<g
   id="g11476">
</g>
<g
   id="g11478">
</g>
<g
   id="g11480">
</g>
</svg>