<?xml version="1.0" encoding="UTF-8" standalone="no"?>
<!-- Generator: Adobe Illustrator 19.0.0, SVG Export Plug-In . SVG Version: 6.00 Build 0)  -->

<svg
   xmlns:dc="http://purl.org/dc/elements/1.1/"
   xmlns:cc="http://creativecommons.org/ns#"
   xmlns:rdf="http://www.w3.org/1999/02/22-rdf-syntax-ns#"
   xmlns:svg="http://www.w3.org/2000/svg"
   xmlns="http://www.w3.org/2000/svg"
   xmlns:sodipodi="http://sodipodi.sourceforge.net/DTD/sodipodi-0.dtd"
   xmlns:inkscape="http://www.inkscape.org/namespaces/inkscape"
   version="1.1"
   id="Layer_1"
   x="0px"
   y="0px"
   viewBox="0 0 512.001 512.001"
   style="enable-background:new 0 0 512.001 512.001;"
   xml:space="preserve"
   sodipodi:docname="pen.svg"
   inkscape:version="0.92.3 (2405546, 2018-03-11)"><metadata
   id="metadata9925"><rdf:RDF><cc:Work
       rdf:about=""><dc:format>image/svg+xml</dc:format><dc:type
         rdf:resource="http://purl.org/dc/dcmitype/StillImage" /></cc:Work></rdf:RDF></metadata><defs
   id="defs9923" /><sodipodi:namedview
   pagecolor="#ffffff"
   bordercolor="#666666"
   borderopacity="1"
   objecttolerance="10"
   gridtolerance="10"
   guidetolerance="10"
   inkscape:pageopacity="0"
   inkscape:pageshadow="2"
   inkscape:window-width="1920"
   inkscape:window-height="1028"
   id="namedview9921"
   showgrid="false"
   inkscape:zoom="0.46093662"
   inkscape:cx="131.25449"
   inkscape:cy="256.00049"
   inkscape:window-x="-8"
   inkscape:window-y="-8"
   inkscape:window-maximized="1"
   inkscape:current-layer="Layer_1" />
<g
   id="g9888"
   style="fill:#27a4dd;fill-opacity:1">
	<g
   id="g9886"
   style="fill:#27a4dd;fill-opacity:1">
		<path
   d="M314.637,291.691l177.858-177.858c26.006-26.006,26.006-68.321,0-94.328c-26.006-26.006-68.322-26.006-94.328,0.001    L220.31,197.363L28.466,5.52C18.003-4.943,0,2.464,0,17.31v478.015C0,504.535,7.466,512,16.675,512H494.69    c14.805,0,22.282-17.974,11.79-28.465L314.637,291.691z M421.75,43.087c13.002-13.002,34.16-13.003,47.165,0    c13.002,13.003,13.002,34.16,0,47.165l-23.582,23.582l-47.165-47.165L421.75,43.087z M374.586,90.251l47.165,47.165    L291.056,268.109l-47.165-47.164L374.586,90.251z M225.752,249.969l36.279,36.279l-53.04,16.761L225.752,249.969z     M209.868,378.601H133.4v-76.468L209.868,378.601z M33.35,478.652v-0.001v-33.35h16.675c9.209,0,16.675-7.466,16.675-16.675    c0-9.209-7.466-16.675-16.675-16.675H33.35v-33.35h16.675c9.209,0,16.675-7.466,16.675-16.675c0-9.209-7.466-16.675-16.675-16.675    H33.35v-33.35h16.675c9.209,0,16.675-7.466,16.675-16.675c0-9.209-7.466-16.675-16.675-16.675H33.35v-33.35h16.675    c9.209,0,16.675-7.466,16.675-16.675c0-9.209-7.466-16.675-16.675-16.675H33.35v-33.35h16.675c9.209,0,16.675-7.466,16.675-16.675    c0-9.209-7.466-16.675-16.675-16.675H33.35V57.568l165.825,165.825l-23.377,73.976l-47.282-47.282    c-10.466-10.469-28.465-3.05-28.465,11.79v133.4c0,9.209,7.466,16.675,16.675,16.675h133.4c14.805,0,22.282-17.974,11.79-28.465    l-47.284-47.284l73.976-23.376l165.825,165.826H33.35z"
   id="path9884"
   style="fill:#27a4dd;fill-opacity:1" />
	</g>
</g>
<g
   id="g9890">
</g>
<g
   id="g9892">
</g>
<g
   id="g9894">
</g>
<g
   id="g9896">
</g>
<g
   id="g9898">
</g>
<g
   id="g9900">
</g>
<g
   id="g9902">
</g>
<g
   id="g9904">
</g>
<g
   id="g9906">
</g>
<g
   id="g9908">
</g>
<g
   id="g9910">
</g>
<g
   id="g9912">
</g>
<g
   id="g9914">
</g>
<g
   id="g9916">
</g>
<g
   id="g9918">
</g>
</svg>